<svg id="Capa_1" enable-background="new 0 0 512 512" height="512" viewBox="0 0 512 512" width="512" xmlns="http://www.w3.org/2000/svg"><g><g><g><g><g><g><g><g><g><circle cx="256" cy="256" fill="#fe6a16" r="256"/></g></g></g></g></g></g></g></g><path d="m511.98 259.244-156.81-156.81-144.134 54.087 96.744 96.744-225.933 92.737 165.866 165.866c2.752.088 5.514.132 8.287.132 140.302 0 254.242-112.866 255.98-252.756z" fill="#e83c00"/><g><path d="m309.058 74.301-41.263-8.764c-24.048-5.108-47.896 9.465-54.323 33.195l-9.35 34.522c-3.056 11.283 2.8 23.07 13.637 27.451l13.987 5.654c9.063 3.664 19.288 3.087 27.881-1.572l48.485-26.287 30.514 112.307-26.024-11.214c-17.489-8.902-38.672-14.112-61.497-14.112-7.784 0-15.377.606-22.698 1.758-17.355 2.73-35.247.275-50.835-7.829-11.871-6.172-25.474-9.472-39.888-8.982-40.014 1.363-75.467 36.119-77.569 76.1-2.441 46.43 34.484 84.842 80.38 84.842 4.429 0 8.774-.358 13.009-1.046 14.53-2.361 29.475-.561 42.993 5.266 16.046 6.918 34.703 10.88 54.609 10.88 7.614 0 15.046-.58 22.218-1.683 77.659-6.162 125.419-12.97 152.048-17.661 16.623-2.929 28.158-18.202 26.463-34.996-9.637-95.499-63.47-183.153-93.299-225.272-11.817-16.688-29.477-28.309-49.478-32.557z" fill="#ffcdbe"/></g><g><path d="m451.835 332.129c-9.637-95.499-63.47-183.153-93.299-225.272-11.818-16.687-29.477-28.308-49.478-32.556l-41.263-8.764c-3.922-.833-7.838-1.134-11.674-.965v101.85c1.193-.475 2.366-1.016 3.508-1.635l48.485-26.287 30.514 112.307-26.024-11.215c-16.2-8.246-35.573-13.315-56.482-14.019v160.802c5.866-.198 11.615-.729 17.203-1.588 77.659-6.161 125.419-12.969 152.048-17.661 16.622-2.929 28.157-18.203 26.462-34.997z" fill="#ffbeaa"/></g><g><path d="m256.66 358.701c-53.257 0-92.527-17.928-94.605-18.896l12.637-27.208c.563.259 57.043 25.767 122.406 11.956l6.201 29.353c-16.279 3.438-31.992 4.795-46.639 4.795z" fill="#faa68e"/></g><g><path d="m303.298 353.905-6.201-29.353c-14.243 3.009-28.063 4.151-40.976 4.094v30.049c.181 0 .358.006.539.006 14.647 0 30.36-1.357 46.638-4.796z" fill="#d47f6c"/></g></g></svg>