<svg id="Capa_1" enable-background="new 0 0 512 512" height="512" viewBox="0 0 512 512" width="512" xmlns="http://www.w3.org/2000/svg"><path d="m512 256c0 1.73-.02 3.46-.06 5.18-.03 1.86-.09 3.72-.17 5.57-.09 2.4-.23 4.8-.39 7.18-.07 1.03-.15 2.05-.24 3.07-.14 1.81-.3 3.61-.49 5.41-.29 2.81-.62 5.61-1 8.39-15.09 111.04-101.39 199.46-211.39 217.72-6.84 1.13-13.75 2.01-20.76 2.59-7.09.59-14.26.89-21.5.89-.67 0-1.34 0-2-.01-1.71-.01-3.4-.04-5.1-.09-.37-.01-.74-.02-1.11-.04-4.83-.14-9.63-.43-14.39-.85-.18-.02-.37-.03-.55-.05-4.67-.41-9.31-.96-13.91-1.63-1.85-.27-3.69-.56-5.52-.87-1.12-.19-2.24-.38-3.35-.59-1.73-.31-3.45-.64-5.17-.99-116.9-23.67-204.9-127-204.9-250.88 0-141.38 114.62-256 256-256 116.92 0 215.53 78.38 246.16 185.47 2.48 8.66 4.51 17.5 6.07 26.51 1.01 5.86 1.83 11.79 2.44 17.78.03.34.07.67.1 1.01.81 8.29 1.23 16.72 1.23 25.23z" fill="#f9da55"/><path d="m511.14 277c-.14 1.81-.3 3.61-.49 5.41-.29 2.81-.62 5.61-1 8.39-15.09 111.04-101.39 199.46-211.39 217.72-6.84 1.13-13.75 2.01-20.76 2.59l-196-195.11v-5l-30.5-30 139.01-105 54 55h78l60-55 19 20h29.51z" fill="#f4c042"/><path d="m51 231h410v50h-410z" fill="#fff"/><path d="m51 256h410v25h-410z" fill="#f2f2f2"/><path d="m81.5 196h50v120h-50z" fill="#1f55b8" transform="matrix(-1 0 0 -1 213 512)"/><path d="m81.5 256h50v60h-50z" fill="#1d52a0"/><path d="m380.523 196h50v120h-50z" fill="#1f55b8"/><path d="m380.523 256h50v60h-50z" fill="#1d52a0"/><path d="m130.012 176h60v160h-60z" fill="#2869b6" transform="matrix(-1 0 0 -1 320.023 512)"/><path d="m130.012 256h60v80h-60z" fill="#1f55b8"/><path d="m322.012 176h60v160h-60z" fill="#2869b6"/><path d="m322.012 256h60v80h-60z" fill="#1f55b8"/></svg>