<svg id="Capa_1" enable-background="new 0 0 512 512" height="512" viewBox="0 0 512 512" width="512" xmlns="http://www.w3.org/2000/svg"><g><g><g><g><g><g><g><g><g><circle cx="256" cy="256" fill="#7584f2" r="256"/></g></g></g></g></g></g></g></g><g fill="#4855b7"><path d="m478.311 383.027-155.506-155.506-.502 2.775-77.328-77.328-82.228 40.634-39.098 204.765 112.905 112.905c6.419.482 12.904.728 19.446.728 95.157 0 178.188-51.918 222.311-128.973z"/><path d="m305.654 198.146 176.992 176.992c18.745-35.585 29.354-76.123 29.354-119.138 0-22.371-2.87-44.072-8.261-64.755l-110.592-110.592-99.153 30 44.124 44.124z"/></g><g><path d="m296.592 375.148c-64.659 0-117.076-52.417-117.076-117.076 0-46.132 26.686-86.026 65.459-105.104-4.452-.407-8.959-.626-13.518-.626-80.986 0-146.638 65.652-146.638 146.638s65.652 146.638 146.638 146.638c62.99 0 116.697-39.72 137.458-95.476-19.91 15.663-45.025 25.006-72.323 25.006z" fill="#fff"/></g><g><path d="m296.592 375.148c-38.769 0-73.13-18.849-94.437-47.877l-89.551 57.599c26.641 36.802 69.948 60.749 118.854 60.749 62.99 0 116.696-39.72 137.458-95.476-19.911 15.662-45.026 25.005-72.324 25.005z" fill="#e9edf5"/></g><g><path d="m408.147 198.146h-102.493l-10.606-25.606 61.887-61.887h-62.941v-30h99.153l10.607 25.607-61.887 61.886h66.28z" fill="#ffce00"/></g><g fill="#fdba12"><path d="m403.754 106.26-10.607-25.607h-47.268v30h11.056l-11.056 11.055v42.426z"/><path d="m345.879 168.146h62.268v30h-62.268z"/></g><g><path d="m337.805 324.325h-81.805l-10.606-25.606 41.197-41.198h-43.041v-30h79.255l10.606 25.606-41.197 41.198h45.591z" fill="#ffce00"/></g><g><path d="m337.805 294.325h-45.591l41.197-41.198-10.606-25.606h-36.564v30h.35l-.35.35v66.454h51.564z" fill="#fdba12"/></g></g></svg>