<svg id="Capa_1" enable-background="new 0 0 512 512" height="512" viewBox="0 0 512 512" width="512" xmlns="http://www.w3.org/2000/svg"><g><g><g><g><g><g><g><g><g><g><g><g><g><circle cx="256" cy="256" fill="#6dd7a7" r="256"/></g></g></g></g></g></g></g></g></g></g></g></g><path d="m67.95 367.977 139.382 139.382c15.758 3.034 32.024 4.641 48.668 4.641 141.385 0 256-114.615 256-256 0-13.289-1.014-26.342-2.966-39.085l-91.442-91.442z" fill="#00c379"/><g><g><path d="m256.117 339.407-161.475 3.75v-217.684h161.475l64.638 116.517z" fill="#3340dc"/><g><path d="m256.117 125.473h161.475v217.684h-161.475z" fill="#1b2ddd"/></g><path d="m256.117 343.789h-135.495v-191.732h135.495l73.406 98.197z" fill="#d7e8ff"/><path d="m256.117 152.057h135.495v191.732h-135.495z" fill="#adcfff"/></g></g><g><path d="m281.889 228.361-25.772 66.814c-36.9 0-66.814-29.913-66.814-66.814s29.913-66.814 66.814-66.814z" fill="#555a66"/><path d="m322.931 228.361c0 36.9-29.913 66.814-66.814 66.814v-133.627c36.9 0 66.814 29.913 66.814 66.813z" fill="#333940"/><path d="m256.192 330.846-23.369-15.356v-37.22h46.589z" fill="#e2a66f"/><path d="m279.412 315.49-23.22 15.356v-52.576h23.22z" fill="#d5985c"/><g id="XMLID_27_"><path id="XMLID_29_" d="m310.43 241.011-54.313 59.02c-29.996 0-54.312-29.025-54.312-59.02 0-29.997 24.317-54.313 54.312-54.313z" fill="#f1ba87"/><path id="XMLID_28_" d="m256.117 186.698c29.996 0 54.313 24.317 54.313 54.313 0 29.995-24.317 59.02-54.313 59.02z" fill="#e2a66f"/></g><g><circle cx="231.185" cy="240.621" fill="#555a66" r="6.323"/><circle cx="281.049" cy="240.621" fill="#333940" r="6.323"/></g><g><path d="m256.117 270.153h-16.234c0 8.966 7.268 16.234 16.234 16.234l2.005-10.76z" fill="#fff"/><path d="m256.117 286.387c8.966 0 16.234-7.268 16.234-16.234h-16.234z" fill="#d7e8ff"/></g><circle cx="204.805" cy="244.551" fill="#f1ba87" r="8.125"/><circle cx="307.131" cy="244.551" fill="#e2a66f" r="8.125"/><path d="m256.149 262.183h-9.797l5.127-37.637h4.67l1.973 12.825z" fill="#e2a66f"/><path d="m265.882 262.183h-9.733v-37.637h4.606z" fill="#d5985c"/><g id="XMLID_19_"><path id="XMLID_25_" d="m269.133 207.31-13.016 2.544-56.37 20.638c0-29.997 25.238-54.313 56.37-54.313z" fill="#555a66"/><path id="XMLID_24_" d="m256.117 176.179c31.132 0 56.371 24.317 56.371 54.313l-56.371-20.638z" fill="#333940"/></g><path d="m266.275 334.865h-79.299l45.846-26.365s6.06 11.243 23.452 11.243z" fill="#ff415b"/><path d="m256.275 334.865h69.299l-45.847-26.365s-6.06 11.243-23.452 11.243z" fill="#b30042"/></g><g><path d="m229.42 332.464h-168.293v19.04c0 12.866 10.43 23.296 23.296 23.296h171.694l18.126-21.168-18.126-8.472z" fill="#424ede"/><path d="m451.108 332.464h-168.294l-26.697 12.696v29.64h171.694c12.866 0 23.296-10.43 23.296-23.296v-19.04z" fill="#3340dc"/><path d="m256.117 345.161h-26.697v-12.697h26.697l4.249 6.349z" fill="#3340dc"/><path d="m256.117 332.464h26.697v12.696h-26.697z" fill="#1b2ddd"/></g><path d="m333.116 195.114h141.75v98.873h-141.75z" fill="#fff"/><g fill="#333940"><path d="m345.483 262.803h87.35v15h-87.35z"/><path d="m345.483 237.444h117.017v15h-117.017z"/><path d="m345.483 212.084h117.017v15h-117.017z"/></g><path d="m336.968 293.988h-37.592l37.592-26.222z" fill="#fff"/></g></svg>