<svg id="Capa_1" enable-background="new 0 0 512 512" height="512" viewBox="0 0 512 512" width="512" xmlns="http://www.w3.org/2000/svg"><g><g><g><g><g><g><g><g><g><ellipse cx="256" cy="256" fill="#a3d4ff" rx="256" ry="256" transform="matrix(.707 -.707 .707 .707 -106.039 256)"/></g></g></g></g></g></g></g></g><path d="m512 256c0-8.951-.46-17.794-1.356-26.508l-102.963-102.963-7.251 9.336-94.454-94.454-99.952 49.976 69.164 69.164-189.251 200.874 149.784 149.784c6.691.524 13.454.791 20.279.791 141.385 0 256-114.615 256-256z" fill="#65b1fc"/><g><path d="m104.319 126.529h303.363v203.294h-303.363z" fill="#707789"/></g><g><path d="m256.121 126.529h151.561v203.294h-151.561z" fill="#555a66"/></g><g><path d="m136.525 155.238h238.949v160.128h-238.949z" fill="#fff"/></g><g><path d="m256.121 155.238h119.354v160.128h-119.354z" fill="#e9edf5"/></g><g><path d="m256 295.493c-22.451 0-40.65-18.2-40.65-40.65v-198.308h81.3v198.308c0 22.451-18.199 40.65-40.65 40.65z" fill="#ffce00"/></g><g><path d="m256.121 56.536v238.954c22.395-.065 40.53-18.237 40.53-40.647v-198.307z" fill="#fdba12"/></g><g><path d="m206.024 41.411h99.952v49.976h-99.952z" fill="#fe6a16"/></g><g><path d="m256.121 41.411h49.856v49.976h-49.856z" fill="#f24500"/></g><g><path d="m85.937 313.534h340.126v47.891h-340.126z" fill="#555a66"/></g><g><path d="m256.121 313.534h169.943v47.891h-169.943z" fill="#333940"/></g><g><g><path d="m215.35 106.316h34.65v30h-34.65z" fill="#707789"/></g><g><path d="m215.35 156.487h34.65v30h-34.65z" fill="#707789"/></g><g><path d="m215.35 206.659h34.65v30h-34.65z" fill="#707789"/></g></g></g></svg>