<svg version="1.1" id="Capa_1" xmlns="http://www.w3.org/2000/svg" x="0" y="0" viewBox="0 0 512 512" xml:space="preserve" enable-background="new 0 0 512 512" width="512" height="512"><title>007 star</title><g class="nc-icon-wrapper"><path d="M268.298 26.677l54.899 111.239a13.716 13.716 0 0 0 10.325 7.502l122.758 17.838c11.248 1.634 15.739 15.457 7.6 23.39l-88.829 86.587a13.712 13.712 0 0 0-3.944 12.138l20.969 122.262c1.922 11.202-9.836 19.745-19.897 14.457L262.38 364.365a13.714 13.714 0 0 0-12.762 0L139.82 422.089c-10.061 5.289-21.818-3.253-19.897-14.457l20.969-122.262a13.712 13.712 0 0 0-3.944-12.138l-88.829-86.587c-8.139-7.934-3.648-21.756 7.6-23.39l122.758-17.838a13.714 13.714 0 0 0 10.325-7.502l54.899-111.239c5.032-10.192 19.566-10.192 24.597.001z" fill="#F4A32C"/><path d="M176.862 390.883l20.969-122.262a13.71 13.71 0 0 0-3.944-12.138l-88.829-86.587c-3.843-3.745-4.868-8.803-3.697-13.272l-45.642 6.632c-11.247 1.634-15.739 15.457-7.6 23.39l88.829 86.587a13.715 13.715 0 0 1 3.944 12.138l-20.969 122.262c-1.922 11.202 9.836 19.745 19.897 14.457l39.5-20.766c-2.088-2.81-3.142-6.455-2.458-10.441z" fill="#E89528"/><path d="M265.773 421.482c-2.608-8.306-14.315-8.442-17.115-.197l-26.767 78.817c-1.983 5.84 2.359 11.898 8.525 11.898h51.518c6.079 0 10.412-5.901 8.59-11.701l-24.751-78.817z" fill="#F4D44E"/><path d="M255.428 505.948l.587-83.235c.022-3.163 1.513-5.643 3.642-7.184-4.254-1.173-9.289.717-11 5.756l-26.767 78.817c-1.983 5.84 2.359 11.898 8.525 11.898h27.299a8.916 8.916 0 0 1-2.286-6.052z" fill="#E8C842"/><path d="M361.432 82.922c-2.854 8.091 6.296 15.118 13.377 10.273l67.695-46.321c5.015-3.432 5.174-10.776.312-14.421l-40.62-30.454c-4.793-3.593-11.697-1.502-13.689 4.148l-27.075 76.775z" fill="#F4D44E"/><path d="M368.544 84.472c51.66-67.465 48.557-66.233 53.087-67.903l-19.434-14.57C397.404-1.594 390.5.497 388.508 6.147l-27.075 76.775c-1.985 5.628 1.839 10.735 6.732 11.697-1.869-2.894-2.13-6.828.379-10.147z" fill="#E8C842"/><path d="M151.369 83.782c2.891 8.197-6.38 15.316-13.553 10.408L69.235 47.262c-5.081-3.477-5.241-10.917-.316-14.61L110.07 1.8c4.856-3.64 11.85-1.521 13.868 4.202l27.431 77.78z" fill="#F4D44E"/><path d="M144.775 88.835L92.131 24.537c-1.94-2.369-2.434-5.337-1.734-7.988L68.918 32.651c-4.926 3.693-4.764 11.133.316 14.61-1.019-.696 66.88 45.764 68.581 46.929 4.459 3.051 9.726 1.453 12.381-2.16-1.981-.327-3.905-1.344-5.421-3.195z" fill="#E8C842"/><path d="M382.705 120.212a7.727 7.727 0 0 1 4.973-9.731l49.641-16.066a7.727 7.727 0 1 1 4.758 14.703l-49.641 16.066a7.726 7.726 0 0 1-9.731-4.972z" fill="#F7E7A1"/><path d="M121.743 125.185l-49.641-16.066a7.728 7.728 0 0 1-4.973-9.731 7.73 7.73 0 0 1 9.731-4.972l49.641 16.066a7.728 7.728 0 0 1 4.973 9.731 7.728 7.728 0 0 1-9.731 4.972z" fill="#F7E7A1"/><path d="M170.773 81.295l-.307-52.175a7.728 7.728 0 0 1 15.453-.091l.306 52.175a7.728 7.728 0 0 1-7.681 7.772 7.724 7.724 0 0 1-7.771-7.681z" fill="#F7E7A1"/><path d="M332.855 88.978a7.727 7.727 0 0 1-7.681-7.772l.307-52.175a7.727 7.727 0 0 1 15.452.091l-.306 52.175a7.725 7.725 0 0 1-7.772 7.681z" fill="#F7E7A1"/><path d="M183.758 460.919a7.729 7.729 0 0 1-.911-10.891l33.69-39.843a7.731 7.731 0 0 1 10.889-.912 7.73 7.73 0 0 1 .911 10.891l-33.69 39.843a7.725 7.725 0 0 1-10.889.912z" fill="#F7E7A1"/><path d="M319.762 460.008l-33.69-39.843a7.729 7.729 0 0 1 .911-10.891 7.728 7.728 0 0 1 10.889.912l33.69 39.843a7.729 7.729 0 0 1-.911 10.891c-3.247 2.743-8.123 2.358-10.889-.912z" fill="#F7E7A1"/></g></svg>