<svg id="Capa_1" enable-background="new 0 0 512 512" height="512" viewBox="0 0 512 512" width="512" xmlns="http://www.w3.org/2000/svg"><g><circle cx="256" cy="256" fill="#9cd6f4" r="256"/><path d="m512 256c0-3.811-.1-7.599-.264-11.369-37.517-37.521-134.32-134.316-134.32-134.316l-255.717 251.373s45.05 45.056 45.077 45.082c3.758 6.684 8.362 12.682 13.639 17.82.185.187 46.27 46.274 87.133 87.138 136.023-6.04 244.452-118.214 244.452-255.728z" fill="#7fa6fb"/><g><path d="m393.3 261.171c6.722 11.658 10.275 25.191 10.275 39.136 0 37.893-25.889 69.07-58.935 70.968-3.354 35.333-29.332 61.98-60.414 61.98-7.362 0-14.71-1.655-21.83-4.928l-6.428-2.949v-.147l-6.377 2.971c-7.208 3.354-14.629 5.053-22.065 5.053-31.075 0-57.045-26.647-60.406-61.98-16.527-.949-31.259-9.216-41.864-21.984-10.606-12.768-17.078-30.038-17.078-48.984 0-13.945 3.552-27.478 10.275-39.136-10.907-10.348-17.167-25.5-17.167-41.585 0-20.278 9.812-38.673 25.603-48.013-.706-3.847-1.066-7.752-1.066-11.635 0-31.082 22.094-56.368 49.256-56.368 2.184 0 4.398.169 6.561.507h.022c4.185-7.811 9.878-14.143 16.357-18.52 6.487-4.384 13.769-6.811 21.146-6.811 13.599 0 26.669 7.473 34.965 19.983l1.839 2.773v-.375l1.898-2.795c8.421-12.445 21.079-19.586 34.723-19.586 14.747 0 29.118 9.709 37.51 25.33 2.177-.338 4.384-.507 6.575-.507 27.162 0 49.256 25.286 49.256 56.368 0 3.92-.36 7.833-1.066 11.628 15.799 9.348 25.61 27.743 25.61 48.021 0 16.078-6.259 31.236-17.174 41.578v.007z" fill="#eebda9"/><path d="m393.3 261.171c6.722 11.658 10.275 25.191 10.275 39.136 0 37.893-25.889 69.07-58.935 70.968-3.354 35.333-29.332 61.98-60.414 61.98-7.362 0-14.71-1.655-21.83-4.928l-6.428-2.949v-324.251l1.898-2.795c8.421-12.445 21.079-19.586 34.723-19.586 14.747 0 29.118 9.709 37.51 25.33 2.177-.338 4.384-.507 6.575-.507 27.162 0 49.256 25.286 49.256 56.368 0 3.92-.36 7.833-1.066 11.628 15.799 9.348 25.61 27.743 25.61 48.021 0 16.078-6.259 31.236-17.174 41.578z" fill="#e09380"/><g><path d="m165.011 217.033-20.21-8.855c8.387-19.142 21.689-35.921 38.468-48.523l13.251 17.643c-13.747 10.325-24.643 24.065-31.509 39.735z" fill="#f6dfb9"/></g><g><g><path d="m328.844 353.756-13.266-17.632c13.716-10.32 24.589-24.043 31.444-39.687l20.21 8.855c-8.373 19.111-21.648 35.869-38.388 48.464z" fill="#eebda9"/></g></g><path d="m421.506 219.586c0-21.432-9.356-41.188-24.816-53.272 3.391-39.099-24.235-73.778-60.017-73.778h-.699c-10.628-15.475-26.72-24.823-43.387-24.823-13.739 0-26.669 5.656-36.62 15.615l-.11.11c-9.959-10.025-22.925-15.725-36.694-15.725-16.666 0-32.759 9.348-43.38 24.823h-.706c-34.907 0-63.37 33.539-60.016 73.778-15.46 12.084-24.808 31.84-24.808 53.272 0 16.115 5.347 31.509 14.886 43.372-5.244 11.533-7.995 24.293-7.995 37.349 0 40.268 25.823 73.991 60.259 80.831 7.142 36.562 36.01 63.15 70.122 63.15 9.679 0 19.174-2.31 28.331-6.862.037.015.074.037.11.052 9.12 4.523 18.593 6.811 28.258 6.811 34.12 0 62.988-26.588 70.122-63.15 34.443-6.84 60.259-40.563 60.259-80.831 0-13.055-2.743-25.816-7.995-37.349 9.542-11.865 14.896-27.259 14.896-43.373zm-28.964 80.72c0 32.053-21.322 58.391-48.535 59.958l-9.451.544-.897 9.422c-2.817 29.64-24.065 51.992-49.433 51.992-5.781 0-11.555-1.316-17.225-3.92.052-75.359 0-77.153 0-95.092h-22.065v23.102c-22.617 5.2-38.312 21.653-48.638 31.766l15.563 15.585c3.317-3.03 15.901-17.909 33.075-24.337v48.874c-5.737 2.67-11.569 4.023-17.409 4.023-25.36 0-46.608-22.352-49.425-51.992l-.897-9.422-9.451-.544c-27.221-1.567-48.543-27.905-48.543-59.958 0-23.492 11.18-36.797 13.151-41.166-2.434-3.214-20.042-13.68-20.042-39.555 0-31.707 25.448-41.092 26.831-42.438-.956-5.818-2.295-10.098-2.295-17.211 0-25 17.152-45.336 38.224-45.336 3.898 0 6.097.647 12.599 1.581 1.206-1.53 10.709-26.404 31.487-26.404 10.025 0 19.491 5.575 25.772 15.048v87.046h22.065v-24.698c22.661-5.163 38.488-21.749 48.734-31.781l-15.556-15.585c-3.236 2.949-15.945 17.968-33.178 24.374v-39.665c6.281-9.282 15.651-14.739 25.588-14.739 20.859 0 30.229 24.816 31.487 26.412 6.458-.934 8.701-1.589 12.599-1.589 21.079 0 38.224 20.336 38.224 45.336 0 7.09-1.317 11.29-2.287 17.211 1.714 1.662 26.831 10.488 26.831 42.438 0 25.831-17.615 36.348-20.042 39.555 1.953 4.332 13.139 17.659 13.139 41.165z" fill="#f6dfb9"/><path d="m406.613 262.958c5.251 11.533 7.995 24.293 7.995 37.349 0 40.268-25.816 73.991-60.259 80.831-7.134 36.562-36.003 63.15-70.122 63.15-9.664 0-19.138-2.287-28.258-6.811v-114.267h11.032c0 17.939.052 19.733 0 95.092 5.671 2.604 11.444 3.92 17.225 3.92 25.367 0 46.616-22.352 49.433-51.992l.897-9.422 9.451-.544c27.213-1.567 48.535-27.905 48.535-59.958 0-23.507-11.187-36.834-13.143-41.166 2.427-3.207 20.042-13.724 20.042-39.555 0-31.95-25.117-40.776-26.831-42.438.971-5.921 2.287-10.121 2.287-17.211 0-25-17.144-45.336-38.224-45.336-3.898 0-6.141.655-12.599 1.589-1.258-1.596-10.628-26.412-31.487-26.412-9.936 0-19.307 5.457-25.588 14.739v39.665c17.233-6.406 29.942-21.425 33.178-24.374l15.556 15.585c-10.246 10.032-26.073 26.618-48.734 31.781v24.698h-11.032v-108.543c9.951-9.959 22.881-15.615 36.62-15.615 16.666 0 32.759 9.348 43.387 24.823h.699c35.782 0 63.407 34.679 60.017 73.778 15.46 12.084 24.816 31.84 24.816 53.272 0 16.114-5.354 31.508-14.893 43.372z" fill="#eebda9"/><g><path d="m145.644 289.833h22.065v44.13h-22.065z" fill="#f6dfb9"/></g><g><g><path d="m333.195 157.443h22.065v44.13h-22.065z" fill="#eebda9"/></g></g><g><path d="m200.806 113.314h22.065v22.065h-22.065z" fill="#f6dfb9"/></g><g><g><path d="m289.066 356.027h22.065v22.065h-22.065z" fill="#eebda9"/></g></g><g><g><path d="m355.26 223.638h22.065v22.065h-22.065z" fill="#eebda9"/></g></g><g><path d="m256.02 179.508h-.051c-42.563.029-77.176 34.657-77.176 77.227s34.612 77.198 77.176 77.227h.051c42.578 0 77.227-34.642 77.227-77.227s-34.649-77.227-77.227-77.227z" fill="#e27a4e"/></g><path d="m333.247 256.736c0 42.585-34.649 77.227-77.227 77.227h-.051v-154.455h.051c42.578 0 77.227 34.642 77.227 77.228z" fill="#dc455b"/><g><path d="m296.913 242.474-51.926 51.926-29.868-29.861 15.6-15.607 14.268 14.269 10.981-10.982 25.345-25.352z" fill="#f1f6ff"/></g><path d="m296.913 242.474-40.945 40.945v-31.2l25.345-25.352z" fill="#dfe5f2"/></g></g></svg>