<?xml version="1.0" encoding="iso-8859-1"?>
<!-- Generator: Adobe Illustrator 21.0.0, SVG Export Plug-In . SVG Version: 6.00 Build 0)  -->
<svg xmlns="http://www.w3.org/2000/svg" xmlns:xlink="http://www.w3.org/1999/xlink" version="1.1" id="Capa_1" x="0px" y="0px" viewBox="0 0 512 512" style="enable-background:new 0 0 512 512;" xml:space="preserve" width="512" height="512">
<g>
	<g>
		<g>
			<g>
				<g>
					<g>
						<circle style="fill:#FF7045;" cx="256" cy="256" r="256"/>
					</g>
				</g>
			</g>
		</g>
	</g>
	<path style="fill:#DE4726;" d="M512,256c0-9.611-0.548-19.093-1.579-28.429L364.539,81.69L191.024,145.19l-16.445,280.141   l86.603,86.603C400.173,509.173,512,395.653,512,256z"/>
	<g>
		<polygon style="fill:#4AB8F7;" points="364.539,81.69 147.461,81.69 99.134,156.298 412.866,156.298   "/>
	</g>
	<g>
		<polygon style="fill:#19CFFC;" points="304.404,283.924 196.055,286.961 99.134,156.298 147.461,81.69   "/>
	</g>
	<g>
		<polygon style="fill:#19CFFC;" points="207.596,283.924 315.945,286.961 412.866,156.298 364.539,81.69   "/>
	</g>
	<g>
		<circle style="fill:#CDD2E1;" cx="256" cy="344.905" r="114.452"/>
	</g>
	<g>
		<circle style="fill:#FFFFFF;" cx="256" cy="344.905" r="84.952"/>
	</g>
	<g>
		<polygon style="fill:#1EA1E3;" points="364.539,81.69 256,81.69 256,156.298 412.866,156.298   "/>
	</g>
	<g>
		<polygon style="fill:#4AB8F7;" points="412.866,156.298 364.539,81.69 256,221.552 256,285.281 315.945,286.961   "/>
	</g>
	<g>
		<path style="fill:#BEC3D2;" d="M256,230.452v228.905c63.21,0,114.452-51.242,114.452-114.453    C370.452,281.695,319.21,230.452,256,230.452z"/>
	</g>
	<g>
		<path style="fill:#DCE1EB;" d="M256,259.952v169.905c46.918,0,84.952-38.035,84.952-84.953    C340.952,297.987,302.918,259.952,256,259.952z"/>
	</g>
	<g>
		<g>
			<rect x="208.59" y="296.07" style="fill:#BEC3D2;" width="40.589" height="97.669"/>
		</g>
		<g>
			<rect x="262.821" y="296.07" style="fill:#BEC3D2;" width="40.589" height="97.669"/>
		</g>
	</g>
</g>















</svg>
