<svg id="Capa_1" enable-background="new 0 0 512 512" height="512" viewBox="0 0 512 512" width="512" xmlns="http://www.w3.org/2000/svg"><g><g><g><g><g><g><g><circle cx="256" cy="256" fill="#1dd882" r="256"/></g></g></g></g></g></g><path d="m512 256c0-20.388-2.384-40.22-6.887-59.231l-70.113-70.113-358 258.688 119.769 119.769c19.011 4.503 38.843 6.887 59.231 6.887 141.385 0 256-114.615 256-256z" fill="#06b26b"/><g><path d="m77 126.656h358v258.689h-358z" fill="#fff"/></g><g><path d="m256 126.656h179v258.689h-179z" fill="#e9edf5"/></g><g><path d="m107.62 159.673h296.759v192.653h-296.759z" fill="#7584f2"/></g><g><path d="m256 159.673h148.38v192.654h-148.38z" fill="#4855b7"/></g><g><path d="m107.62 352.327v-42.265l62.121-68.416 48.869 54.733 97.737-105.556 88.033 80.752v80.752z" fill="#a9baff"/></g><g><path d="m404.38 271.575-88.033-80.752-60.347 65.175v96.329h148.38z" fill="#7584f2"/></g><g><circle cx="212.286" cy="210.23" fill="#ffce00" r="28.427"/></g></g></svg>