<svg id="Layer_1" enable-background="new 0 0 512 512" height="512" viewBox="0 0 512 512" width="512" xmlns="http://www.w3.org/2000/svg"><g id="XMLID_2924_"><g id="XMLID_1656_"><g id="XMLID_3344_"><g id="XMLID_3346_"><g id="XMLID_3347_"><g id="XMLID_3349_"><g id="XMLID_3351_"><g id="XMLID_3352_"><g id="XMLID_3353_"><g id="XMLID_3354_"><g id="XMLID_3355_"><g id="XMLID_3357_"><g id="XMLID_3358_"><g id="XMLID_3359_"><g id="XMLID_3360_"><g id="XMLID_3361_"><g id="XMLID_3362_"><circle id="XMLID_3363_" cx="256" cy="256" fill="#7fe881" r="256"/></g></g></g></g></g></g></g></g></g></g></g></g></g></g></g></g><path id="XMLID_2853_" d="m512 256c0-32.034-5.901-62.686-16.647-90.95l-95.856-95.856-286.993 373.612 52.547 52.547c28.264 10.746 58.915 16.647 90.949 16.647 141.385 0 256-114.615 256-256z" fill="#5bc980"/><path id="XMLID_1390_" d="" fill="#5bc980"/><g id="XMLID_1391_"><g id="XMLID_1388_"><g id="XMLID_1420_"><path id="XMLID_1429_" d="m112.504 311.896h286.993v130.91h-286.993z" fill="#4bb9ec"/></g></g><g id="XMLID_1386_"><path id="XMLID_1387_" d="m256 311.9h143.5v130.91h-143.5z" fill="#0095ff"/></g><g id="XMLID_1371_"><g id="XMLID_1384_"><path id="XMLID_1385_" d="m112.504 405.196v-336.002h286.992v271.041l-64.961 64.961z" fill="#fff"/></g><g id="XMLID_1380_"><path id="XMLID_1382_" d="m399.5 69.19v271.04l-64.96 64.97h-78.54v-336.01z" fill="#fff5ca"/></g><g id="XMLID_1372_"><path id="XMLID_1373_" d="m399.496 340.235-64.961 64.961v-64.961z" fill="#ffe767"/></g></g><g id="XMLID_1264_"><g id="XMLID_1309_"><path id="XMLID_1321_" d="m229.739 120.905-27.127 71.227 14.019 5.339 6.463-16.971h25.99l6.399 16.957 14.034-5.296-26.897-71.271zm-.932 44.595 7.342-19.277 7.275 19.277z" fill="#434c54"/><g fill="#213949"><path id="XMLID_1314_" d="m256 156.34v40.92l13.52-5.1z"/><path id="XMLID_1312_" d="m333.001 180.689v-60.19h-15v75.19h36.095v-15z"/><path id="XMLID_1311_" d="m282.392 120.474h15v75.241h-15z"/></g><path id="XMLID_1310_" d="m160.744 149.995v15 32.249h15v-32.249h23.618v-15h-23.618v-16.051h25.656v-15h-40.656z" fill="#434c54"/></g><g fill="#ff637b"><path id="XMLID_1300_" d="m311.868 266.907-25.561-25.561-33.395 33.396-33.396-33.396-25.561 25.561 33.396 33.396-33.396 33.396 25.561 25.56 33.396-33.395 33.395 33.395 25.561-25.56-33.396-33.396z"/><path id="XMLID_1299_" d="m278.47 300.3 33.4 33.4-25.56 25.56-30.31-30.31v-57.3l30.31-30.3 25.56 25.56z"/></g></g></g></g></svg>