<svg id="Capa_1" enable-background="new 0 0 512 512" height="512" viewBox="0 0 512 512" width="512" xmlns="http://www.w3.org/2000/svg"><g><g><g><g><g><g><g><circle cx="256" cy="256" fill="#4a7aff" r="256"/></g></g></g></g></g></g><path d="m512 256c0-19.84-2.257-39.152-6.528-57.694l-90.563-90.563-13.767 12.478-44.22-44.221-222.741 69.121-7.003 137.83 148.356 148.356-88.603 27.686 52.477 52.477c5.487.352 11.018.53 16.592.53 141.385 0 256-114.615 256-256z" fill="#0053bf"/><g><path d="m216.231 313.039h79.537v137.961h-79.537z" fill="#ffa426"/></g><g><path d="m255.986 313.039h39.783v137.961h-39.783z" fill="#fe8205"/></g><g><path d="m336.986 299.404h-161.972c-42.967 0-77.922-34.956-77.922-77.922v-113.74h317.817v113.74c0 42.967-34.956 77.922-77.923 77.922zm-196.895-148.662v70.74c0 19.256 15.666 34.922 34.922 34.922h161.973c19.256 0 34.922-15.666 34.922-34.922v-70.74z" fill="#ffa426"/></g><g><path d="m255.986 107.742v43h115.923v70.74c0 19.256-15.666 34.922-34.922 34.922h-81v43h81c42.967 0 77.922-34.956 77.922-77.922v-113.74z" fill="#fe8205"/></g><g><path d="m273.872 351.547h-35.744c-45.867 0-83.05-37.183-83.05-83.05v-192.497h201.845v192.496c-.001 45.868-37.183 83.051-83.051 83.051z" fill="#ffce00"/></g><g><path d="m255.986 76v275.546h17.886c45.867 0 83.05-37.183 83.05-83.05v-192.496z" fill="#fdba12"/></g><g><path d="m256 152.513 16.829 34.099 37.631 5.468-27.23 26.543 6.428 37.479-33.658-17.695-33.658 17.695 6.428-37.479-27.23-26.543 37.631-5.468z" fill="#fff"/></g><g><path d="m310.46 192.08-37.631-5.468-16.829-34.099-.014.028v85.873l.014-.007 33.658 17.695-6.428-37.479z" fill="#e9edf5"/></g><g><path d="m186.932 421.202h138.135v37.792h-138.135z" fill="#ffce00"/></g><g><path d="m255.986 421.202h69.082v37.792h-69.082z" fill="#fdba12"/></g></g></svg>