<svg version="1.1" id="Capa_1" xmlns="http://www.w3.org/2000/svg" x="0" y="0" viewBox="0 0 512 512" xml:space="preserve" enable-background="new 0 0 512 512" width="512" height="512"><title>095 diamond</title><g class="nc-icon-wrapper"><path fill="#70BBEF" d="M145.454 209.709L249.289 483.58h12.345l103.834-273.871z"/><path d="M232.914 474.449c4.335 4.886 10.17 7.927 16.375 9.132L145.454 209.71.322 163.994c.661 4.906-15.025-18.303 232.592 310.455z" fill="#9CD7F2"/><path d="M51.695 180.177L.322 163.995c.661 4.905-15.024-18.304 232.592 310.453 3.21 3.618 7.245 6.219 11.642 7.817L51.695 180.177z" fill="#71C5DB"/><path d="M86.074 51.099l59.38 158.611L255.461 84.212l-167.38-34.11c-.727.316-1.4.651-2.007.997z" fill="#9CD7F2"/><path d="M365.468 209.71L261.634 483.58c6.205-1.205 12.039-4.246 16.375-9.132 64.394-85.292 233.353-308.79 233.863-310.854L365.468 209.71z" fill="#9CD7F2"/><path d="M365.468 209.71l59.361-158.56c-.7-.398-1.396-.735-2.074-1.03L255.461 84.212 365.468 209.71z" fill="#9CD7F2"/><path fill="#57ADDD" d="M145.454 209.709h220.014L255.461 84.212z"/><path d="M86.074 51.099c-3.916 2.227-4.52 3.544-10.676 11.438C-4.743 165.306-.551 157.536.322 163.994l145.132 45.715-59.38-158.61z" fill="#70BBEF"/><path d="M51.695 180.177L87.063 53.74l-.989-2.642c-3.915 2.227-4.52 3.544-10.676 11.438-80.142 102.77-75.949 95-75.077 101.458l51.374 16.183z" fill="#57ADDD"/><path d="M365.468 209.71l146.403-46.115c.413-2.149-.209-3.422-1.25-4.756-72.603-93.205-82.672-106.93-85.792-107.689l-59.361 158.56z" fill="#70BBEF"/><path d="M255.461 84.212L422.756 50.12c-3.521-1.527-6.327-1.748-6.433-1.767l-134.829-18.16c-42.419-5.714-60.701 2.923-187.247 18.208-.195.042-2.915.287-6.166 1.702l167.38 34.109z" fill="#57ADDD"/></g></svg>