<svg xmlns="http://www.w3.org/2000/svg" width="512" height="512" viewBox="0 0 512 512"><g class="nc-icon-wrapper"><path d="M472.661 266.107c-33.571-2.534-66.439 8.569-91.56 31.008-72.485-14.781-152.245-1.503-208.941 47.495 9.076-59.69 7.007-160.578 7.007-160.578.652-10.514 6.591-20.154 16.067-25.764 34.048-20.154 37.483-34.416 59.232-41.611 23.046-7.624 43.489-15.051 46.546-24.035 3.661-10.76-.22-22.429-12.153-24.11-6.676-.69-14.796-.275-23.452.859l1.113-2.351c9.678-19.175 17.742-26.519 17.742-41.562 0-31.509-50.248-24.875-119.89-24.875-55.545 0-57.256 79.65-55.672 111.893.373 7.583-1.632 15.111-5.833 21.593-13.567 20.946-3.17 37.193-19.946 66.229C1.782 340.745 25.882 425.62 40.969 456.873c5.315 11.012 14.405 20.13 25.947 25.46 40.778 18.83 80.297 9.023 80.569 8.873.286 1.272 125.545 41.458 322.056 6.621 1.042-.314 16.922-5.37 16.922-22.577V281.109c0-7.829-5.996-14.413-13.802-15.002z" fill="#F4D44E"/><path d="M118.927 482.332c-11.543-5.329-20.631-14.448-25.947-25.46-15.088-31.252-39.188-116.127 41.952-256.574 16.776-29.038 6.377-45.283 19.946-66.229 4.2-6.482 6.205-14.01 5.833-21.593C159.128 80.233 160.837.583 216.383.583c7.985 0 15.711-.087 23.139-.194-20.115-.973-45.923.194-75.15.194-55.545 0-57.256 79.65-55.672 111.893.373 7.583-1.632 15.111-5.833 21.593-13.567 20.946-3.17 37.193-19.946 66.229C1.782 340.745 25.882 425.62 40.969 456.873c5.315 11.012 14.405 20.13 25.947 25.46 38.172 17.626 75.234 10.161 80.041 9.012-8.948-1.76-18.45-4.59-28.03-9.013z" fill="#E8C842"/><path d="M189.636 51.188l-.422 1.296c-7.803 23.948 21.04 40.885 48.181 29.094l28.146-12.226-.136.016 1.115-2.349c4.172-8.266 8.042-14.332 11.098-19.765L231.239 67.4c-6.793 2.949-14.455 3.472-21.7.629-4.613-1.817-7.031-6.441-5.625-10.757l.422-1.296c2.3-7.061 11.487-6.037 30.751-8.474a7.729 7.729 0 0 0 6.815-8.546c-.478-4.242-4.305-7.304-8.546-6.815l-20.734 2.336c-11.359 1.151-19.951 7.399-22.986 16.711z" fill="#DBBC3B"/></g></svg>