<svg width="320" height="340" viewBox="0 0 320 340" fill="none" xmlns="http://www.w3.org/2000/svg">
<g clip-path="url(#clip0)">
<path d="M313.206 283.52H6.7797C3.02855 283.52 -0.0110474 285.569 -0.0110474 288.095V335.403C-0.0110474 337.929 3.02855 339.978 6.7797 339.978H313.206C316.958 339.978 320.001 337.929 320.001 335.403V288.095C320.001 285.569 316.958 283.52 313.206 283.52Z" fill="#F7E7A1"/>
<path opacity="0.2" d="M313.206 283.52H6.7797C3.02855 283.52 -0.0110474 285.569 -0.0110474 288.095V335.403C-0.0110474 337.929 3.02855 339.978 6.7797 339.978H313.206C316.958 339.978 320.001 337.929 320.001 335.403V288.095C320.001 285.569 316.958 283.52 313.206 283.52Z" fill="black"/>
<path d="M314.205 283.52H5.79537C2.59468 283.52 0 286.335 0 289.808V330.396C0 333.869 2.59468 336.684 5.79537 336.684H314.205C317.405 336.684 320 333.869 320 330.396V289.808C320 286.335 317.405 283.52 314.205 283.52Z" fill="#F7E7A1"/>
<path opacity="0.05" d="M320 290.853H0V295.436H320V290.853Z" fill="white"/>
<path opacity="0.05" d="M320 301.546H0V306.13H320V301.546Z" fill="white"/>
<path opacity="0.05" d="M320 312.24H0V316.823H320V312.24Z" fill="white"/>
<path opacity="0.05" d="M320 322.933H0V327.517H320V322.933Z" fill="white"/>
<g opacity="0.5">
<path opacity="0.5" d="M271.523 93.3135C270.646 92.6328 269.573 92.3177 268.499 92.4259C267.426 92.5341 266.424 93.0584 265.678 93.9027C264.872 94.8551 264.44 96.111 264.474 97.4036C264.508 98.6962 265.005 99.9236 265.859 100.825L271.445 106.85C271.62 107.04 271.857 107.147 272.105 107.147C272.352 107.147 272.59 107.04 272.765 106.85L278.318 100.789C279.168 99.8831 279.659 98.6532 279.686 97.3607C279.714 96.0681 279.276 94.8148 278.466 93.8669C277.717 93.0269 276.714 92.508 275.641 92.4056C274.569 92.3031 273.498 92.6239 272.625 93.3091C272.465 93.4347 272.272 93.5027 272.075 93.5035C271.877 93.5043 271.684 93.4379 271.523 93.3135V93.3135Z" fill="#F55F44"/>
<path opacity="0.5" d="M272.144 106.613C272.08 106.743 272.046 106.888 272.046 107.035C272.046 107.182 272.08 107.327 272.144 107.457C272.223 107.584 272.296 107.715 272.362 107.85C272.506 108.238 272.255 108.662 272 108.979C271.84 109.18 271.663 109.447 271.766 109.693C271.816 109.781 271.88 109.86 271.955 109.925C272.126 110.103 272.251 110.326 272.319 110.572C272.387 110.819 272.395 111.08 272.342 111.33C272.29 111.581 272.178 111.813 272.019 112.003C271.859 112.193 271.657 112.335 271.432 112.415" stroke="#F55F44" stroke-miterlimit="10"/>
</g>
<g opacity="0.5">
<path opacity="0.5" d="M32.9625 126.34C32.0858 125.659 31.0123 125.344 29.9389 125.453C28.8655 125.561 27.8639 126.085 27.1178 126.929C26.3116 127.882 25.8795 129.138 25.9133 130.43C25.9471 131.723 26.4441 132.95 27.2987 133.851L32.8843 139.877C33.0594 140.067 33.2969 140.173 33.5445 140.173C33.7921 140.173 34.0296 140.067 34.2046 139.877L39.7573 133.816C40.6074 132.91 41.0984 131.68 41.126 130.387C41.1537 129.095 40.7158 127.841 39.9054 126.894C39.1567 126.054 38.1539 125.535 37.081 125.432C36.0082 125.33 34.9373 125.65 34.0648 126.336C33.9045 126.461 33.712 126.529 33.5143 126.53C33.3166 126.531 33.1236 126.464 32.9625 126.34Z" fill="#F55F44"/>
<path opacity="0.5" d="M33.5836 139.64C33.5195 139.77 33.486 139.915 33.486 140.062C33.486 140.209 33.5195 140.354 33.5836 140.484C33.6625 140.61 33.7353 140.741 33.8016 140.876C33.9455 141.265 33.6946 141.689 33.4396 142.005C33.2792 142.206 33.1023 142.474 33.2052 142.72C33.2557 142.808 33.3197 142.886 33.3944 142.952C33.5651 143.13 33.6905 143.353 33.7584 143.599C33.8263 143.845 33.8343 144.106 33.7817 144.357C33.7292 144.608 33.6178 144.839 33.4584 145.029C33.299 145.219 33.097 145.362 32.872 145.442" stroke="#F55F44" stroke-miterlimit="10"/>
</g>
<g opacity="0.5">
<path opacity="0.5" d="M189.261 0.928214C188.384 0.247506 187.311 -0.0676194 186.237 0.0405776C185.164 0.148775 184.162 0.673048 183.416 1.51734C182.61 2.46973 182.178 3.72569 182.211 5.0183C182.245 6.31091 182.742 7.53826 183.597 8.43954L189.183 14.4647C189.358 14.6546 189.595 14.7613 189.843 14.7613C190.09 14.7613 190.328 14.6546 190.503 14.4647L196.056 8.40383C196.906 7.49783 197.397 6.2679 197.424 4.97534C197.452 3.68278 197.014 2.42946 196.204 1.48163C195.455 0.641587 194.452 0.122716 193.379 0.0202393C192.306 -0.0822371 191.235 0.238556 190.363 0.92375C190.203 1.04939 190.01 1.11739 189.812 1.11819C189.615 1.119 189.422 1.05256 189.261 0.928214V0.928214Z" fill="#F55F44"/>
<path opacity="0.5" d="M189.882 14.2282C189.818 14.3579 189.784 14.5028 189.784 14.65C189.784 14.7971 189.818 14.942 189.882 15.0717C189.961 15.1984 190.033 15.3295 190.1 15.4645C190.244 15.8528 189.993 16.2767 189.738 16.5936C189.577 16.7945 189.401 17.0399 189.503 17.3077C189.554 17.3961 189.618 17.4745 189.693 17.5398C189.863 17.7179 189.989 17.941 190.057 18.1872C190.124 18.4334 190.133 18.6945 190.08 18.9452C190.027 19.1958 189.916 19.4274 189.757 19.6175C189.597 19.8076 189.395 19.9498 189.17 20.0302" stroke="#F55F44" stroke-miterlimit="10"/>
</g>
<g opacity="0.5">
<path opacity="0.5" d="M228.278 63.0094H227.044V70.5966H228.278V63.0094Z" fill="#47E6B1"/>
<path opacity="0.5" d="M231.157 67.4725V66.1335H224.165V67.4725H231.157Z" fill="#47E6B1"/>
</g>
<g opacity="0.5">
<path opacity="0.5" d="M85.964 179.495H84.7301V187.082H85.964V179.495Z" fill="#47E6B1"/>
<path opacity="0.5" d="M88.8432 183.958V182.619H81.8509V183.958H88.8432Z" fill="#47E6B1"/>
</g>
<g opacity="0.5">
<path opacity="0.5" d="M53.8818 53.637H52.6478V61.2242H53.8818V53.637Z" fill="#47E6B1"/>
<path opacity="0.5" d="M56.761 58.1001V56.7612H49.7687V58.1001H56.761Z" fill="#47E6B1"/>
</g>
<g opacity="0.5">
<path opacity="0.5" d="M273.111 171.015H271.877V178.602H273.111V171.015Z" fill="#47E6B1"/>
<path opacity="0.5" d="M275.99 175.478V174.139H268.997V175.478H275.99Z" fill="#47E6B1"/>
</g>
<path opacity="0.5" d="M225.435 116.838C225.099 116.674 224.83 116.381 224.679 116.016C224.527 115.651 224.504 115.239 224.613 114.857C224.634 114.798 224.645 114.736 224.646 114.674V114.674C224.661 114.493 224.621 114.311 224.531 114.158C224.441 114.004 224.307 113.887 224.149 113.826C223.992 113.764 223.82 113.761 223.66 113.816C223.501 113.872 223.363 113.984 223.268 114.134V114.134C223.236 114.184 223.208 114.238 223.186 114.294C223.034 114.659 222.764 114.951 222.428 115.115C222.092 115.28 221.712 115.305 221.359 115.187C221.305 115.168 221.248 115.156 221.191 115.151V115.151C221.028 115.14 220.866 115.186 220.729 115.282C220.593 115.379 220.488 115.521 220.432 115.687C220.376 115.853 220.37 116.034 220.416 116.204C220.463 116.374 220.558 116.523 220.689 116.629V116.629C220.735 116.664 220.785 116.694 220.837 116.718C221.174 116.882 221.443 117.174 221.595 117.539C221.746 117.904 221.769 118.317 221.66 118.699C221.643 118.759 221.632 118.82 221.627 118.882C221.616 119.059 221.659 119.235 221.748 119.383C221.836 119.531 221.967 119.645 222.12 119.706C222.273 119.767 222.44 119.773 222.597 119.723C222.753 119.672 222.891 119.569 222.988 119.427V119.427C223.022 119.378 223.05 119.324 223.07 119.266C223.22 118.897 223.488 118.6 223.825 118.432C224.163 118.263 224.545 118.234 224.901 118.351C224.954 118.37 225.009 118.382 225.065 118.387V118.387C225.228 118.398 225.39 118.352 225.527 118.256C225.663 118.159 225.768 118.018 225.824 117.852C225.881 117.685 225.886 117.504 225.84 117.334C225.793 117.165 225.698 117.016 225.567 116.91V116.91C225.526 116.881 225.482 116.857 225.435 116.838Z" fill="#4D8AF0"/>
<path opacity="0.5" d="M75.307 99.8787C74.9709 99.7138 74.7019 99.4215 74.5504 99.0566C74.3989 98.6917 74.3754 98.2794 74.4843 97.8971C74.5052 97.8386 74.5163 97.7767 74.5172 97.7141V97.7141C74.5327 97.533 74.4924 97.3515 74.4025 97.1979C74.3127 97.0444 74.1784 96.9276 74.0208 96.8659C73.8631 96.8041 73.6911 96.8008 73.5315 96.8566C73.372 96.9124 73.2341 97.024 73.1394 97.174V97.174C73.1071 97.2245 73.0795 97.2783 73.0571 97.3347C72.9052 97.6994 72.6358 97.9913 72.2995 98.1557C71.9632 98.32 71.5832 98.3455 71.2309 98.2273C71.1761 98.2086 71.1195 98.1966 71.0622 98.1916V98.1916C70.8995 98.1802 70.7376 98.2262 70.6009 98.3227C70.4642 98.4192 70.3598 98.5611 70.3034 98.7271C70.247 98.8932 70.2416 99.0746 70.2879 99.2443C70.3342 99.414 70.4298 99.5629 70.5604 99.6689C70.6065 99.7046 70.6562 99.7346 70.7085 99.7582C71.0489 99.9183 71.3231 100.209 71.4786 100.574C71.6341 100.94 71.6602 101.355 71.5517 101.74C71.5349 101.799 71.5238 101.861 71.5188 101.923C71.5083 102.099 71.5507 102.275 71.6396 102.423C71.7285 102.572 71.8593 102.685 72.0123 102.746C72.1654 102.807 72.3325 102.813 72.4889 102.763C72.6453 102.713 72.7826 102.609 72.8802 102.467V102.467C72.914 102.418 72.9416 102.364 72.9625 102.307C73.1116 101.937 73.3802 101.641 73.7175 101.472C74.0548 101.303 74.4374 101.275 74.7928 101.392C74.8462 101.41 74.9014 101.422 74.9574 101.427C75.1201 101.439 75.2819 101.393 75.4187 101.296C75.5554 101.2 75.6598 101.058 75.7162 100.892C75.7726 100.726 75.778 100.544 75.7317 100.375C75.6854 100.205 75.5898 100.056 75.4592 99.9501V99.9501C75.4114 99.9193 75.3603 99.8953 75.307 99.8787V99.8787Z" fill="#4D8AF0"/>
<path opacity="0.5" d="M134.536 12.8492C134.2 12.6843 133.931 12.392 133.779 12.0271C133.628 11.6623 133.604 11.2499 133.713 10.8676C133.734 10.8092 133.745 10.7472 133.746 10.6846V10.6846C133.761 10.5035 133.721 10.322 133.631 10.1685C133.541 10.015 133.407 9.89815 133.25 9.83637C133.092 9.77459 132.92 9.77134 132.76 9.82712C132.601 9.88289 132.463 9.99455 132.368 10.1446V10.1446C132.336 10.195 132.308 10.2489 132.286 10.3052C132.138 10.674 131.87 10.9708 131.533 11.1395C131.196 11.3081 130.814 11.3368 130.46 11.2202C130.405 11.2014 130.348 11.1895 130.291 11.1845V11.1845C130.128 11.1731 129.966 11.219 129.83 11.3155C129.693 11.412 129.589 11.5539 129.532 11.72C129.476 11.886 129.47 12.0674 129.517 12.2371C129.563 12.4068 129.659 12.5558 129.789 12.6617V12.6617C129.835 12.6975 129.885 12.7274 129.937 12.751C130.278 12.9111 130.552 13.2017 130.707 13.5672C130.863 13.9327 130.889 14.3476 130.78 14.7326C130.764 14.7922 130.753 14.8535 130.748 14.9156V14.9156C130.737 15.0922 130.779 15.2678 130.868 15.4162C130.957 15.5645 131.088 15.6777 131.241 15.739C131.394 15.8002 131.561 15.8061 131.718 15.7558C131.874 15.7056 132.011 15.6018 132.109 15.4601V15.4601C132.143 15.4106 132.17 15.3566 132.191 15.2994C132.34 14.9303 132.609 14.6334 132.946 14.4647C133.284 14.2961 133.666 14.2676 134.022 14.3845C134.075 14.4032 134.13 14.4152 134.186 14.4202V14.4202C134.349 14.4316 134.511 14.3856 134.647 14.2891C134.784 14.1926 134.889 14.0507 134.945 13.8847C135.001 13.7186 135.007 13.5372 134.96 13.3675C134.914 13.1978 134.819 13.0489 134.688 12.9429V12.9429C134.641 12.9044 134.59 12.8728 134.536 12.8492V12.8492Z" fill="#4D8AF0"/>
<path d="M232.588 273.501L212.574 256.822C212.574 256.822 210.961 249.878 210.316 245.013C209.67 240.148 208.699 219.306 208.699 219.306C209.159 217.501 209.463 215.655 209.608 213.789C209.806 213.745 210.02 213.691 210.205 213.633C211.702 213.22 213.09 212.436 214.26 211.341C215.429 210.247 216.349 208.873 216.946 207.327C219.003 201.775 216.345 195.214 212.981 190.814C209.616 186.413 205.38 182.878 203.167 177.424C200.436 170.707 201.37 162.58 199.975 155.225C199.842 154.195 199.49 153.213 198.947 152.355C198.079 151.191 196.726 150.941 195.521 150.476C191.704 149.004 188.841 144.982 186.608 140.783C182.992 133.977 179.249 123.622 171.801 123.033C169.032 122.814 166.145 123.828 163.344 123.819C159.005 123.819 154.706 123.877 150.404 124.524C148.866 124.751 147.274 125.064 145.991 126.162C141.586 129.946 143.58 139.939 139.336 144.014C138.073 145.219 136.457 145.656 135.029 146.486C129.649 149.611 127.26 157.943 127.576 165.437C127.729 168.953 128.399 172.609 130.312 175.175C131.829 177.228 133.985 178.406 135.399 180.575C137.674 184.065 137.366 188.703 137.119 193.415C134.075 194.799 131.632 196.388 130.863 198.097C128.255 203.841 128.592 223.479 128.592 223.479C128.592 223.479 129.559 255.613 122.131 259.629L94.3589 280.472C94.3589 280.472 74.6571 261.888 69.8118 272.831C66.5008 280.316 78.5933 284.551 86.5727 286.479C81.5424 290.353 78.7578 297.512 81.1146 302.359C84.8164 310.004 95.165 315.212 95.165 315.212C95.165 315.212 134.63 317.279 152.872 312.842H153.172C160.917 314.364 172.031 315.967 180.944 315.002C181.117 315.449 181.236 315.734 181.236 315.734C181.236 315.734 238.408 320.947 248.736 299.757C254.034 288.885 248.506 283.868 241.859 281.556C249.3 280.914 257.773 278.655 258.748 271.787C260.524 259.254 232.588 273.501 232.588 273.501ZM226.83 280.146C216.366 284.279 207.877 284.511 203.352 284.203C201.131 278.945 191.868 256.179 191.626 240.938C191.687 237.537 192.243 234.565 193.497 232.333C196.187 227.527 196.985 223.755 196.895 220.895C196.895 220.685 196.895 220.475 196.895 220.27C196.908 219.396 196.831 218.523 196.664 217.668C197.107 218.846 197.238 220.135 197.043 221.39C196.076 226.772 198.659 261.687 198.659 261.687C198.659 261.687 200.757 269.506 205.117 271.76L226.83 280.146ZM124.38 277.669L134.425 270.72C134.425 270.72 139.11 268.288 139.595 262.383L142.906 234.163C143.13 235.373 143.425 236.565 143.79 237.734C144.374 239.586 144.613 242.299 144.662 245.531C144.535 261.281 139.595 287.412 139.595 287.412H139.652C139.652 287.488 139.628 287.55 139.62 287.599L139.27 287.622C131.147 287.354 112.214 286.586 101.618 284.993L124.38 277.669ZM106.867 294.115V294.169H104.399L106.867 294.115Z" fill="url(#paint0_linear)"/>
<path d="M185.839 143.617C187.994 147.714 190.774 151.65 194.476 153.065C195.64 153.511 196.944 153.766 197.767 154.904C198.294 155.74 198.636 156.698 198.766 157.702C200.111 164.87 199.21 172.792 201.851 179.348C203.99 184.654 208.082 188.109 211.336 192.389C214.589 196.669 217.139 203.069 215.169 208.478C214.596 209.981 213.708 211.319 212.577 212.386C211.446 213.454 210.101 214.221 208.65 214.628C205.927 215.432 203.085 215.097 200.321 214.566C196.677 213.865 192.967 212.781 189.931 210.103C184.679 205.47 182.458 197.16 179.71 189.765C178.419 186.301 176.703 182.673 173.865 181.437C170.616 180.017 166.959 182.387 164.849 185.864C162.739 189.341 161.806 193.71 160.782 197.914C159.63 202.663 158.174 207.59 155.142 210.696C153.829 212.086 152.173 213.033 150.375 213.423C148.576 213.812 146.712 213.628 145.008 212.892C141.635 211.37 138.97 207.51 138.192 203.033C137 196.138 139.862 187.859 136.346 182.405C134.98 180.294 132.895 179.143 131.43 177.143C129.6 174.639 128.934 171.073 128.79 167.65C128.481 160.34 130.789 152.195 135.992 149.169C137.382 148.361 138.933 147.937 140.154 146.759C144.267 142.791 142.326 133.048 146.583 129.353C147.817 128.277 149.364 127.978 150.852 127.75C155.023 127.126 159.165 127.054 163.356 127.068C166.067 127.068 168.86 126.086 171.533 126.3C178.731 126.885 182.347 136.98 185.839 143.617Z" fill="#965D7B"/>
<path d="M108.627 291.37L110.203 311.619L220.389 310.905L218.287 288.8L181.034 284.096L115.71 288.376L108.627 291.37Z" fill="#575988"/>
<path opacity="0.05" d="M108.627 291.37L110.203 311.619L220.389 310.905L218.287 288.8L181.034 284.096L115.71 288.376L108.627 291.37Z" fill="black"/>
<path d="M181.129 305.518L144.448 309.245C144.448 309.245 169.579 316.189 184.251 312.815L181.129 305.518Z" fill="#F7C4A7"/>
<path opacity="0.1" d="M181.129 305.518L144.448 309.245C144.448 309.245 169.579 316.189 184.251 312.815L181.129 305.518Z" fill="black"/>
<path d="M153.189 162.91C153.189 162.91 160.37 183.405 149.754 192.55C139.138 201.694 147.883 227.272 147.883 227.272L188.779 225.237C188.779 225.237 192.835 196.446 190.651 190.349C190.651 190.349 180.973 193.398 178.789 186.962C176.605 180.526 175.042 162.91 175.042 162.91H153.189Z" fill="#F7C4A7"/>
<path d="M143.823 286.89C143.823 286.89 109.326 286.042 99.1835 283.319C89.0406 280.597 80.2961 293.665 83.8869 301.136C87.4776 308.607 97.4601 313.668 97.4601 313.668C97.4601 313.668 148.816 316.377 159.897 308.759C159.897 308.759 164.113 295.718 159.897 293.178H106.361L145.847 292.33L143.823 286.89Z" fill="#575988"/>
<path d="M198.61 282.993C198.61 282.993 210.164 285.702 226.081 278.928C226.081 278.928 255.897 277.914 245.906 298.565C235.916 319.216 180.66 314.15 180.66 314.15C180.66 314.15 177.37 306.527 180.66 304.496C183.951 302.466 212.504 289.42 221.401 290.099L196.722 295.347L198.61 282.993Z" fill="#575988"/>
<path opacity="0.1" d="M176.457 172.769C175.86 167.945 175.511 164.013 175.511 164.013H153.658C154.667 167.119 155.367 170.332 155.747 173.6C158.811 175.928 162.492 177.106 166.23 176.956C169.968 176.807 173.559 175.336 176.457 172.769V172.769Z" fill="black"/>
<path d="M165.129 175.867C174.611 175.867 182.297 167.526 182.297 157.238C182.297 146.95 174.611 138.609 165.129 138.609C155.647 138.609 147.961 146.95 147.961 157.238C147.961 167.526 155.647 175.867 165.129 175.867Z" fill="#F7C4A7"/>
<path d="M155.06 189.671C155.06 189.671 134.458 193.906 131.961 199.49C129.464 205.073 129.777 224.219 129.777 224.219C129.777 224.219 130.711 255.55 123.533 259.446L96.6828 279.771C96.6828 279.771 77.6432 261.651 72.9583 272.318C68.2735 282.984 95.4365 286.885 95.4365 286.885L125.717 277.066L135.395 270.291C135.395 270.291 139.92 267.922 140.389 262.16L144.448 227.272L160.683 222.189H186.904L190.416 211.308C190.416 211.308 196.895 216.94 195.957 222.189C195.019 227.437 197.52 261.464 197.52 261.464C197.52 261.464 199.548 269.082 203.764 271.282L228.113 280.766C228.113 280.766 253.865 283.475 255.585 271.282C257.304 259.089 230.297 273.018 230.297 273.018L210.929 256.742C210.929 256.742 209.37 249.967 208.745 245.222C208.119 240.478 207.186 220.158 207.186 220.158C207.186 220.158 213.117 198.816 195.945 195.093L173.779 187.64L155.06 189.671Z" fill="#F7C4A7"/>
<path opacity="0.1" d="M141.248 193.991L144.448 216.94C144.448 216.94 141.158 227.611 144.448 238.113C147.739 248.614 140.389 287.747 140.389 287.747C140.389 287.747 178.945 301.136 202.497 285.711C202.497 285.711 185.172 246.079 192.506 232.869C199.84 219.658 192.629 214.49 192.629 214.49L193.756 190.189L188.45 188.493L185.329 212.544C185.329 212.544 163.788 228.803 147.866 214.579L144.432 188.493L141.248 193.991Z" fill="black"/>
<path opacity="0.07" d="M163.517 221.247C161.848 218.356 159.247 216.243 156.221 215.319C153.194 214.396 149.959 214.729 147.147 216.253C152.374 220.515 158.141 221.653 163.517 221.247Z" fill="white"/>
<path opacity="0.07" d="M172.364 218.725C174.029 215.835 176.627 213.721 179.651 212.798C182.675 211.874 185.908 212.207 188.718 213.731C183.502 217.976 177.74 219.109 172.364 218.725Z" fill="white"/>
<path opacity="0.1" d="M141.248 193.991L144.448 215.753C144.448 215.753 141.158 226.424 144.448 236.926C147.739 247.427 140.389 286.55 140.389 286.55C140.389 286.55 178.945 299.94 202.497 284.52C202.497 284.52 185.172 244.888 192.506 231.677C199.84 218.467 192.629 213.298 192.629 213.298L193.756 188.993L188.45 187.301L185.329 211.352C185.329 211.352 163.788 227.611 147.866 213.383L144.432 187.301L141.248 193.991Z" fill="black"/>
<path d="M141.092 193.821L144.448 216.092C144.448 216.092 141.158 226.763 144.448 237.265C147.739 247.766 140.389 286.89 140.389 286.89C140.389 286.89 178.945 300.279 202.497 284.859C202.497 284.859 185.172 245.222 192.506 232.012C199.84 218.801 192.629 213.637 192.629 213.637L193.756 189.332L188.45 187.64L185.329 211.692C185.329 211.692 163.788 227.95 147.866 213.722L144.432 187.64L141.092 193.821Z" fill="#FC6681"/>
<path d="M156.936 295.187L165.051 293.995C165.051 293.995 174.416 280.954 181.129 290.947C181.129 290.947 183.938 297.382 187.373 298.565C189.721 299.337 192.123 299.904 194.554 300.261L180.66 304.496C180.66 304.496 174.573 308.393 168.173 307.375C164.405 306.75 160.555 307.099 156.936 308.393V295.187Z" fill="#F7C4A7"/>
<path opacity="0.1" d="M147.961 239.889C147.961 239.889 162.632 242.259 165.129 238.028Z" fill="black"/>
<path opacity="0.1" d="M175.745 237.18C175.745 237.18 178.554 240.228 189.791 238.028Z" fill="black"/>
<path opacity="0.1" d="M147.175 189.925C147.175 189.925 157.948 191.621 159.975 190.604Z" fill="black"/>
<path opacity="0.1" d="M170.904 189.925C170.904 189.925 181.676 191.621 183.704 190.604Z" fill="black"/>
<path opacity="0.1" d="M158.104 293.919C158.104 293.919 161.074 309.093 158.104 309.629C155.134 310.164 150.926 307.13 150.926 306.79C150.926 306.451 152.798 296.798 152.798 296.798L158.104 293.919Z" fill="black"/>
<path d="M157.795 293.919C157.795 293.919 160.761 309.093 157.795 309.629C154.83 310.164 150.614 307.13 150.614 306.79C150.614 306.451 152.485 296.798 152.485 296.798L157.795 293.919Z" fill="#575988"/>
<path opacity="0.1" d="M143.305 187.703C141.993 191.001 141.528 194.893 142.918 198.151C143.979 200.637 146.057 202.65 146.456 205.354C146.957 208.751 144.638 212.196 145.505 215.503C145.834 216.766 146.604 217.837 147.385 218.841C149.762 221.89 152.921 224.844 156.59 224.608C157.174 218.458 152.271 212.491 153.876 206.559C154.451 204.435 155.801 202.667 156.615 200.641C157.968 197.28 157.775 193.442 157.285 189.814C156.574 184.547 154.772 178.094 149.96 175.63C147.751 174.497 144.613 174.412 143.827 177.491C143.395 179.134 144.403 180.678 144.539 182.285C144.707 184.324 144.033 185.873 143.305 187.703Z" fill="black"/>
<path d="M143.305 187.198C141.993 190.497 141.528 194.384 142.918 197.646C143.979 200.128 146.057 202.145 146.456 204.845C146.957 208.242 144.638 211.687 145.505 214.994C145.834 216.257 146.604 217.333 147.385 218.337C149.762 221.381 152.921 224.336 156.59 224.099C157.174 217.949 152.271 211.982 153.876 206.05C154.451 203.926 155.801 202.159 156.615 200.132C157.968 196.772 157.775 192.933 157.285 189.305C156.574 184.039 154.772 177.585 149.96 175.121C147.751 173.988 144.613 173.907 143.827 176.983C143.395 178.625 144.403 180.169 144.539 181.776C144.707 183.815 144.033 185.364 143.305 187.198Z" fill="#965D7B"/>
<path opacity="0.1" d="M144.526 148.093C144.526 148.093 167.313 144.706 167.938 149.785C168.563 154.864 188.701 163.174 188.701 163.174L183.704 149.785L174.495 133.187C174.495 133.187 157.631 131.848 156.858 133.187C156.084 134.525 147.175 138.944 147.175 138.944L144.526 148.093Z" fill="black"/>
<path d="M144.526 147.754C144.526 147.754 167.313 144.366 167.938 149.445C168.563 154.524 188.701 162.835 188.701 162.835L183.704 149.445L174.495 132.847C174.495 132.847 157.631 131.508 156.858 132.847C156.084 134.186 147.175 138.605 147.175 138.605L144.526 147.754Z" fill="#965D7B"/>
<path opacity="0.1" d="M184.193 183.945C185.302 185.385 186.085 187.086 186.48 188.912C186.859 190.662 186.892 192.483 187.233 194.232C187.998 197.959 190.273 201.092 192.642 203.913C193.411 204.935 194.35 205.792 195.41 206.439C196.496 207.019 197.878 207.139 198.881 206.439C197.927 205.586 197.409 204.287 197.067 203.002C196.586 201.204 196.372 199.334 196.434 197.463C196.537 194.339 197.38 191.041 196.183 188.194C195.492 186.547 194.205 185.297 192.893 184.177C191.98 183.375 190.996 182.674 189.956 182.084C188.014 181.035 185.793 180.575 183.65 180.343C180.862 180.035 183.301 182.802 184.193 183.945Z" fill="black"/>
<path d="M184.193 183.44C185.303 184.878 186.086 186.578 186.48 188.403C186.859 190.153 186.892 191.974 187.233 193.723C187.998 197.45 190.273 200.583 192.642 203.404C193.411 204.426 194.35 205.283 195.41 205.93C196.496 206.51 197.878 206.631 198.881 205.93C197.927 205.077 197.409 203.783 197.067 202.493C196.586 200.695 196.372 198.826 196.434 196.955C196.537 193.83 197.38 190.532 196.183 187.685C195.492 186.042 194.205 184.793 192.893 183.668C191.981 182.864 190.997 182.161 189.956 181.57C188.014 180.522 185.793 180.062 183.65 179.83C180.862 179.526 183.301 182.293 184.193 183.44Z" fill="#965D7B"/>
</g>
<defs>
<linearGradient id="paint0_linear" x1="164.039" y1="316.274" x2="164.039" y2="123.024" gradientUnits="userSpaceOnUse">
<stop stop-color="#808080" stop-opacity="0.25"/>
<stop offset="0.54" stop-color="#808080" stop-opacity="0.12"/>
<stop offset="1" stop-color="#808080" stop-opacity="0.1"/>
</linearGradient>
<clipPath id="clip0">
<rect width="320" height="340" fill="white"/>
</clipPath>
</defs>
</svg>
