<svg id="Capa_1" enable-background="new 0 0 512 512" height="512" viewBox="0 0 512 512" width="512" xmlns="http://www.w3.org/2000/svg"><g><g><path d="m512 256c0 17.164-1.689 33.933-4.91 50.15-23.311 117.375-251.09 113.685-251.09 113.685s-229.148 2.515-251.542-116.019c-2.927-15.49-4.458-31.474-4.458-47.816 0-141.387 114.613-256 256-256s256 114.613 256 256zm0 0" fill="#ffdf66"/><path d="m512 256c0 17.454-1.747 34.499-5.076 50.97-1.64 8.113-173.194 87.432-250.924 87.432s-247.815-70.984-251.486-90.285c-2.963-15.584-4.514-31.669-4.514-48.117 0-46.219 12.25-89.57 33.68-127 44.121 77.07 127.16 129 222.32 129s178.211-51.93 222.32-129c21.43 37.43 33.68 80.781 33.68 127zm0 0" fill="#fec21b"/></g><g><g fill="#c93131"><path d="m338.005 270.786h21.771v65.314h-21.771z"/><path d="m152.224 270.786h21.771v65.314h-21.771z"/><path d="m256 270.786h10.886v65.314h-10.886z"/><path d="m245.114 270.786h10.886v65.314h-10.886z"/></g><path d="m441.781 251.264-92.89-159.075-92.891 159.075 92.891 41.294h92.89l-24.172-41.294z" fill="#23d089"/><path d="m256 251.264-92.891-159.075-92.89 159.075h24.172l-24.172 41.294h92.89z" fill="#84ed48"/><path d="m324.718 251.264h24.173l-92.891-159.075-65.222 171.34 65.222 29.029h92.891z" fill="#1c5e70"/><path d="m163.109 251.264h24.173l-24.173 41.294h92.891v-200.369z" fill="#35707f"/><path d="m104.855 462.619c10.174 7.455 20.917 14.175 32.156 20.086l302.884-48.628c33.571-34.661 57.429-78.778 67.191-127.977h-251.086z" fill="#23d089"/><path d="m256 306.1h-251.085c10.859 54.727 39.15 103.178 78.86 139.307l172.225 47.093z" fill="#84ed48"/><path d="m474.981 388.675c-6.086-2.192-11.849-5.299-17.134-9.295l-9.047-6.841-9.047 6.841c-11.352 8.583-24.891 13.121-39.153 13.121s-27.801-4.537-39.152-13.121l-9.047-6.841-9.047 6.84c-11.352 8.584-24.892 13.121-39.153 13.121-14.262 0-27.801-4.537-39.153-13.121l-9.047-6.84-130 69.731 129.999 69.73c92.815 0 174.091-49.392 218.981-123.325z" fill="#66def4"/><path d="m246.953 379.379c-11.352 8.584-24.892 13.121-39.153 13.121-14.262 0-27.801-4.537-39.153-13.121l-9.047-6.84-9.047 6.841c-11.352 8.583-24.891 13.121-39.152 13.121-14.263 0-27.802-4.537-39.153-13.121l-9.047-6.841-9.047 6.841c-5.285 3.996-11.048 7.103-17.134 9.295 44.889 73.933 126.165 123.325 218.98 123.325v-139.461z" fill="#aef5ff"/></g></g></svg>