<svg xmlns="http://www.w3.org/2000/svg" height="512pt" version="1.1" viewBox="-64 0 512 512" width="512pt">
<g id="surface1">
<path d="M 369.640625 281.398438 C 360.738281 272.496094 348.902344 267.59375 336.3125 267.59375 C 323.722656 267.59375 311.882812 272.492188 302.984375 281.398438 L 221.296875 363.085938 L 162.125 363.085938 L 80.441406 281.394531 C 71.535156 272.496094 59.699219 267.59375 47.109375 267.59375 C 34.519531 267.59375 22.683594 272.492188 13.785156 281.398438 C -4.59375 299.773438 -4.59375 329.675781 13.78125 348.054688 L 112.445312 446.714844 L 112.445312 497 C 112.445312 505.285156 119.160156 512 127.445312 512 L 255.980469 512 C 264.261719 512 270.980469 505.285156 270.980469 497 L 270.980469 446.714844 L 369.640625 348.054688 C 388.015625 329.675781 388.015625 299.773438 369.640625 281.398438 Z M 369.640625 281.398438 " style=" stroke:none;fill-rule:nonzero;fill:rgb(0%,35.294118%,69.411765%);fill-opacity:1;" />
<path d="M 369.640625 281.398438 C 360.738281 272.496094 348.902344 267.59375 336.3125 267.59375 C 323.722656 267.59375 311.882812 272.492188 302.984375 281.398438 L 221.296875 363.085938 L 191.710938 363.085938 L 191.710938 512 L 255.980469 512 C 264.261719 512 270.980469 505.285156 270.980469 497 L 270.980469 446.714844 L 369.640625 348.054688 C 388.015625 329.675781 388.015625 299.773438 369.640625 281.398438 Z M 369.640625 281.398438 " style=" stroke:none;fill-rule:nonzero;fill:rgb(0%,20.392157%,36.078431%);fill-opacity:1;" />
<path d="M 191.710938 238.671875 C 149.140625 238.671875 114.503906 273.304688 114.503906 315.878906 C 114.503906 358.449219 149.140625 393.085938 191.710938 393.085938 C 234.28125 393.085938 268.914062 358.449219 268.914062 315.878906 C 268.914062 273.304688 234.28125 238.671875 191.710938 238.671875 Z M 191.710938 238.671875 " style=" stroke:none;fill-rule:nonzero;fill:rgb(100%,80.784314%,74.901961%);fill-opacity:1;" />
<path d="M 306.394531 83.324219 C 304.628906 77.894531 299.9375 73.9375 294.285156 73.113281 L 232.703125 64.164062 L 205.160156 8.359375 C 202.632812 3.242188 197.417969 0 191.710938 0 C 186 0 180.785156 3.242188 178.257812 8.359375 L 150.71875 64.164062 L 89.136719 73.113281 C 83.488281 73.9375 78.792969 77.894531 77.027344 83.324219 C 75.265625 88.753906 76.738281 94.714844 80.824219 98.699219 L 125.386719 142.136719 L 114.863281 203.46875 C 113.898438 209.097656 116.210938 214.785156 120.832031 218.140625 C 123.445312 220.039062 126.539062 221.007812 129.648438 221.007812 C 132.039062 221.007812 134.433594 220.4375 136.628906 219.28125 L 191.710938 190.324219 L 246.792969 219.28125 C 248.988281 220.4375 251.382812 221.007812 253.773438 221.007812 C 253.785156 221.007812 253.800781 221.007812 253.816406 221.007812 C 262.089844 220.992188 268.792969 214.28125 268.792969 206.007812 C 268.792969 204.855469 268.664062 203.734375 268.417969 202.652344 L 258.035156 142.136719 L 302.597656 98.699219 C 306.6875 94.714844 308.15625 88.753906 306.394531 83.324219 Z M 306.394531 83.324219 " style=" stroke:none;fill-rule:nonzero;fill:rgb(100%,81.960784%,16.862745%);fill-opacity:1;" />
<path d="M 268.914062 315.878906 C 268.914062 273.304688 234.28125 238.671875 191.710938 238.671875 L 191.710938 393.085938 C 234.28125 393.085938 268.914062 358.449219 268.914062 315.878906 Z M 268.914062 315.878906 " style=" stroke:none;fill-rule:nonzero;fill:rgb(100%,65.490196%,56.078431%);fill-opacity:1;" />
<path d="M 306.394531 83.324219 C 304.628906 77.894531 299.9375 73.9375 294.285156 73.113281 L 232.703125 64.164062 L 205.160156 8.359375 C 202.632812 3.242188 197.417969 0 191.710938 0 L 191.710938 190.324219 L 246.792969 219.28125 C 248.988281 220.4375 251.382812 221.007812 253.773438 221.007812 C 253.785156 221.007812 253.800781 221.007812 253.816406 221.007812 C 262.089844 220.992188 268.792969 214.28125 268.792969 206.007812 C 268.792969 204.855469 268.664062 203.734375 268.417969 202.652344 L 258.035156 142.136719 L 302.597656 98.699219 C 306.6875 94.714844 308.15625 88.753906 306.394531 83.324219 Z M 306.394531 83.324219 " style=" stroke:none;fill-rule:nonzero;fill:rgb(100%,55.686275%,11.372549%);fill-opacity:1;" />
</g>
</svg>