<svg width="375" height="599" viewBox="0 0 375 599" fill="none" xmlns="http://www.w3.org/2000/svg">
<g clip-path="url(#clip0)">
<rect width="375" height="417.121" fill="#F47D31" fill-opacity="0.68"/>
<path d="M0 599V236.535C0 236.535 33.8568 293.121 70 378.385C106.143 463.648 183 356.683 232.5 167.88C282 -20.9219 375 167.88 375 167.88V599C375 599 186 378.385 0 599Z" fill="#F47D31"/>
<g clip-path="url(#clip1)">
<path d="M376 378.746L336.787 352.253C336.787 352.253 314.326 316.93 310.519 294.323C306.712 271.715 289.58 231.447 289.58 231.447V210.252C289.58 210.252 269.783 203.188 268.26 222.616C266.737 242.044 272.448 267.123 272.448 267.123C272.448 267.123 278.159 298.915 265.215 307.039L218.007 378.746C218.007 378.746 263.311 417.248 298.717 422.194L376 472V378.746Z" fill="#FFB8B8"/>
<path d="M172.132 277.191H170.839C159.193 277.191 152.647 289.948 160.299 298.094C162.762 300.715 166.506 302.53 172.132 302.624V277.191Z" fill="#FFB8B8"/>
<path d="M172.132 302.624H170.839C159.193 302.624 152.647 315.381 160.299 323.527C162.762 326.148 166.506 327.963 172.132 328.057V302.624Z" fill="#FFB8B8"/>
<path d="M172.132 328.057H170.839C159.193 328.057 152.647 340.814 160.299 348.959C162.762 351.581 166.506 353.396 172.132 353.49V328.057Z" fill="#FFB8B8"/>
<path d="M172.132 353.489H170.839C159.193 353.489 152.647 366.247 160.299 374.392C162.762 377.014 166.506 378.829 172.132 378.922V353.489Z" fill="#FFB8B8"/>
<path d="M273.209 271.118H272.076V242.319C272.076 240.13 271.612 237.963 270.709 235.941C269.806 233.918 268.483 232.081 266.815 230.533C265.147 228.985 263.166 227.758 260.987 226.92C258.807 226.082 256.471 225.651 254.112 225.651H188.353C185.994 225.651 183.658 226.082 181.479 226.92C179.299 227.758 177.319 228.985 175.651 230.533C173.983 232.081 172.659 233.918 171.757 235.941C170.854 237.963 170.389 240.13 170.389 242.319V400.312C170.389 402.5 170.854 404.668 171.757 406.69C172.659 408.712 173.983 410.55 175.651 412.098C177.319 413.645 179.299 414.873 181.479 415.711C183.658 416.548 185.994 416.979 188.353 416.979H254.112C256.471 416.979 258.807 416.548 260.987 415.711C263.166 414.873 265.147 413.645 266.815 412.098C268.483 410.55 269.806 408.712 270.709 406.69C271.612 404.668 272.076 402.5 272.076 400.312V291.618H273.209V271.118Z" fill="#3F3D56"/>
<path d="M268.253 242.436V400.194C268.25 402.039 267.806 403.861 266.955 405.528C266.103 407.196 264.864 408.667 263.326 409.838C262.986 410.096 262.632 410.338 262.264 410.562C260.065 411.922 257.48 412.646 254.837 412.642H188.761C187.69 412.644 186.623 412.525 185.582 412.289C182.663 411.628 180.066 410.077 178.21 407.884C176.354 405.691 175.345 402.983 175.345 400.194V242.436C175.346 239.134 176.759 235.968 179.275 233.634C181.791 231.3 185.203 229.988 188.761 229.988H196.779C196.384 230.886 196.234 231.86 196.34 232.824C196.447 233.789 196.808 234.714 197.391 235.519C197.974 236.324 198.761 236.983 199.683 237.439C200.606 237.895 201.635 238.133 202.68 238.133H240.351C241.395 238.132 242.424 237.893 243.346 237.437C244.268 236.981 245.055 236.322 245.638 235.517C246.221 234.713 246.582 233.788 246.69 232.824C246.797 231.86 246.648 230.886 246.255 229.988H254.837C258.395 229.988 261.807 231.3 264.323 233.634C266.839 235.968 268.252 239.134 268.253 242.436Z" fill="#0869FF"/>
<path d="M207.933 348.871C207.933 348.871 214.419 365.587 209.374 374.949C204.329 384.31 217.301 395.009 217.301 395.009C217.301 395.009 251.173 378.961 246.849 370.937C242.525 362.913 235.318 352.214 236.76 345.527L207.933 348.871Z" fill="#FFB8B8"/>
<path d="M220.544 355.223C233.281 355.223 243.606 345.643 243.606 333.825C243.606 322.008 233.281 312.428 220.544 312.428C207.808 312.428 197.483 322.008 197.483 333.825C197.483 345.643 207.808 355.223 220.544 355.223Z" fill="#FFB8B8"/>
<path d="M265.382 408.909C264.776 409.627 264.087 410.281 263.326 410.859C262.986 411.118 262.632 411.359 262.264 411.583C260.136 412.897 257.585 413.311 254.837 413.311H196.474L197.483 387.319L203.971 373.946C205.427 375.006 206.985 375.939 208.627 376.733C209.015 376.927 209.426 377.122 209.856 377.312C215.932 380.036 225.865 382.431 235.493 375.762C238.523 373.663 241.523 370.664 244.367 366.496L262.344 375.952L263.288 386.196L265.382 408.909Z" fill="white"/>
<path d="M211.234 363.939L210.332 372.688L209.856 377.312L209.144 384.197L206.102 413.664H188.761C187.69 413.666 186.623 413.547 185.582 413.311L178.745 383.974L178.943 383.854L211.234 363.939Z" fill="#2F2E41"/>
<path d="M268.253 369.951V401.216C268.25 403.061 267.806 404.883 266.955 406.55C266.103 408.217 264.864 409.689 263.326 410.859C262.986 411.118 262.632 411.359 262.264 411.583C260.065 412.943 257.48 413.668 254.837 413.664H231.633C232.139 403.784 233.034 394.14 234.081 385.741C234.53 382.162 235.006 378.81 235.493 375.762C237.061 365.935 238.744 359.262 239.951 358.361L247.931 363.246L268.253 369.951Z" fill="#2F2E41"/>
<path d="M195.321 408.047L194.491 413.664H188.761C187.69 413.666 186.623 413.547 185.582 413.311C182.663 412.65 180.066 411.099 178.21 408.905C176.354 406.712 175.345 404.004 175.345 401.216V400.085L178.025 383.974L178.943 383.854L183.07 383.307L195.321 408.047Z" fill="#2F2E41"/>
<path d="M268.253 374.027V401.216C268.25 403.061 267.806 404.883 266.955 406.55C266.103 408.217 264.864 409.689 263.326 410.859C262.986 411.118 262.632 411.359 262.264 411.583L258.739 397.348L263.288 386.196L268.253 374.027Z" fill="#2F2E41"/>
<path d="M242.536 314.473C239.049 309.218 233.59 305.346 227.211 303.602L222.525 307.08L224.347 303.023C222.815 302.806 221.264 302.723 219.716 302.775L215.5 307.804L217.245 302.947C209.96 303.809 203.035 307.49 198.837 313.107C193.471 320.285 192.566 330.268 197.843 337.503C199.292 333.372 201.05 329.496 202.499 325.365C202.833 325.498 204.1 325.49 205.932 325.381L207.694 321.565L208.186 325.22C213.649 324.778 221.752 323.808 226.932 322.92L226.428 320.117L229.441 322.446C231.028 322.107 231.97 321.8 231.892 321.565C235.744 327.327 239.561 331.007 243.412 336.768C244.874 328.641 247.456 321.886 242.536 314.473Z" fill="#2F2E41"/>
<path d="M241.259 336.05C242.121 336.05 242.82 334.753 242.82 333.153C242.82 331.553 242.121 330.256 241.259 330.256C240.397 330.256 239.698 331.553 239.698 333.153C239.698 334.753 240.397 336.05 241.259 336.05Z" fill="#FFB8B8"/>
<path d="M292.054 408.771C307.929 408.771 320.798 382.044 320.798 349.074C320.798 316.104 307.929 289.377 292.054 289.377C276.18 289.377 263.311 316.104 263.311 349.074C263.311 382.044 276.18 408.771 292.054 408.771Z" fill="#FFB8B8"/>
<path opacity="0.2" d="M188.678 274.541C187.172 274.541 185.7 274.127 184.448 273.351C183.196 272.574 182.22 271.471 181.643 270.18C181.067 268.889 180.916 267.469 181.21 266.098C181.504 264.728 182.229 263.469 183.294 262.481C184.359 261.493 185.715 260.82 187.192 260.548C188.669 260.275 190.2 260.415 191.592 260.95C192.983 261.484 194.172 262.39 195.009 263.552C195.845 264.713 196.292 266.079 196.292 267.477C196.29 269.35 195.487 271.145 194.059 272.47C192.632 273.794 190.697 274.539 188.678 274.541ZM188.678 261.118C187.323 261.118 185.998 261.491 184.871 262.19C183.744 262.889 182.865 263.882 182.347 265.043C181.828 266.205 181.692 267.484 181.957 268.717C182.221 269.95 182.874 271.083 183.832 271.973C184.791 272.862 186.012 273.467 187.341 273.713C188.67 273.958 190.048 273.832 191.3 273.351C192.552 272.87 193.623 272.055 194.376 271.009C195.129 269.963 195.531 268.734 195.531 267.477C195.529 265.791 194.806 264.175 193.521 262.983C192.237 261.791 190.495 261.12 188.678 261.118Z" fill="black"/>
<path opacity="0.2" d="M185.632 266.77C186.263 266.77 186.774 266.296 186.774 265.71C186.774 265.125 186.263 264.651 185.632 264.651C185.001 264.651 184.49 265.125 184.49 265.71C184.49 266.296 185.001 266.77 185.632 266.77Z" fill="black"/>
<path opacity="0.2" d="M191.343 266.77C191.974 266.77 192.485 266.296 192.485 265.71C192.485 265.125 191.974 264.651 191.343 264.651C190.712 264.651 190.201 265.125 190.201 265.71C190.201 266.296 190.712 266.77 191.343 266.77Z" fill="black"/>
<path opacity="0.2" d="M191.343 269.949H185.632C185.531 269.949 185.434 269.912 185.363 269.846C185.292 269.78 185.252 269.69 185.252 269.596C185.252 269.502 185.292 269.413 185.363 269.346C185.434 269.28 185.531 269.243 185.632 269.243H191.343C191.444 269.243 191.541 269.28 191.612 269.346C191.683 269.413 191.724 269.502 191.724 269.596C191.724 269.69 191.683 269.78 191.612 269.846C191.541 269.912 191.444 269.949 191.343 269.949Z" fill="black"/>
<path opacity="0.2" d="M254.921 274.541C253.415 274.541 251.943 274.127 250.69 273.351C249.438 272.574 248.462 271.471 247.886 270.18C247.31 268.889 247.159 267.469 247.453 266.098C247.747 264.728 248.472 263.469 249.537 262.481C250.602 261.493 251.958 260.82 253.435 260.548C254.912 260.275 256.443 260.415 257.834 260.95C259.226 261.484 260.415 262.39 261.252 263.552C262.088 264.713 262.535 266.079 262.535 267.477C262.532 269.35 261.73 271.145 260.302 272.47C258.875 273.794 256.939 274.539 254.921 274.541ZM254.921 261.118C253.565 261.118 252.24 261.491 251.114 262.19C249.987 262.889 249.108 263.882 248.59 265.043C248.071 266.205 247.935 267.484 248.2 268.717C248.464 269.95 249.117 271.083 250.075 271.973C251.033 272.862 252.254 273.467 253.584 273.713C254.913 273.958 256.291 273.832 257.543 273.351C258.795 272.87 259.866 272.055 260.618 271.009C261.371 269.963 261.773 268.734 261.773 267.477C261.771 265.791 261.049 264.175 259.764 262.983C258.479 261.791 256.737 261.12 254.921 261.118Z" fill="black"/>
<path opacity="0.2" d="M251.875 266.77C252.506 266.77 253.017 266.296 253.017 265.71C253.017 265.125 252.506 264.651 251.875 264.651C251.244 264.651 250.733 265.125 250.733 265.71C250.733 266.296 251.244 266.77 251.875 266.77Z" fill="black"/>
<path opacity="0.2" d="M257.586 266.77C258.216 266.77 258.728 266.296 258.728 265.71C258.728 265.125 258.216 264.651 257.586 264.651C256.955 264.651 256.443 265.125 256.443 265.71C256.443 266.296 256.955 266.77 257.586 266.77Z" fill="black"/>
<path opacity="0.2" d="M257.585 270.656C257.519 270.656 257.453 270.639 257.396 270.609C256.599 270.14 255.674 269.891 254.73 269.891C253.787 269.891 252.862 270.14 252.065 270.609C252.022 270.632 251.974 270.647 251.924 270.653C251.875 270.659 251.824 270.656 251.776 270.644C251.727 270.632 251.682 270.611 251.642 270.583C251.603 270.555 251.569 270.519 251.544 270.479C251.519 270.439 251.503 270.394 251.497 270.348C251.49 270.302 251.494 270.256 251.507 270.211C251.52 270.166 251.542 270.124 251.573 270.087C251.604 270.05 251.642 270.019 251.685 269.996C252.599 269.468 253.654 269.187 254.73 269.187C255.807 269.187 256.862 269.468 257.776 269.996C257.848 270.035 257.905 270.095 257.937 270.167C257.97 270.239 257.975 270.319 257.953 270.394C257.932 270.469 257.884 270.536 257.817 270.583C257.751 270.63 257.669 270.656 257.585 270.656Z" fill="black"/>
<path d="M222.18 281.82C219.122 281.82 216.134 280.979 213.591 279.403C211.049 277.827 209.068 275.587 207.898 272.966C206.728 270.345 206.422 267.461 207.018 264.678C207.615 261.896 209.087 259.34 211.249 257.334C213.411 255.328 216.165 253.962 219.164 253.409C222.163 252.855 225.271 253.139 228.096 254.225C230.921 255.311 233.335 257.149 235.034 259.508C236.732 261.867 237.639 264.64 237.639 267.477C237.634 271.279 236.004 274.925 233.106 277.614C230.208 280.303 226.279 281.816 222.18 281.82ZM222.18 254.567C219.428 254.567 216.738 255.325 214.45 256.743C212.162 258.162 210.379 260.178 209.326 262.536C208.273 264.895 207.997 267.491 208.534 269.995C209.071 272.499 210.396 274.799 212.342 276.605C214.288 278.41 216.767 279.64 219.466 280.138C222.165 280.636 224.962 280.38 227.504 279.403C230.047 278.426 232.219 276.771 233.748 274.649C235.277 272.526 236.093 270.03 236.093 267.477C236.089 264.054 234.622 260.773 232.013 258.353C229.405 255.933 225.869 254.571 222.18 254.567V254.567Z" fill="white"/>
<path d="M215.996 266.042C217.277 266.042 218.315 265.079 218.315 263.891C218.315 262.702 217.277 261.739 215.996 261.739C214.716 261.739 213.678 262.702 213.678 263.891C213.678 265.079 214.716 266.042 215.996 266.042Z" fill="white"/>
<path d="M227.591 266.042C228.871 266.042 229.909 265.079 229.909 263.891C229.909 262.702 228.871 261.739 227.591 261.739C226.31 261.739 225.272 262.702 225.272 263.891C225.272 265.079 226.31 266.042 227.591 266.042Z" fill="white"/>
<path d="M222.188 274.479C220.109 274.479 217.905 273.78 215.576 272.381C215.404 272.278 215.284 272.115 215.241 271.929C215.199 271.743 215.237 271.549 215.349 271.39C215.46 271.231 215.635 271.119 215.836 271.079C216.036 271.039 216.245 271.075 216.417 271.178C220.514 273.642 224.004 273.66 227.091 271.233C227.247 271.11 227.45 271.05 227.654 271.066C227.858 271.081 228.047 271.172 228.179 271.317C228.312 271.462 228.377 271.649 228.36 271.839C228.343 272.028 228.246 272.204 228.09 272.327C226.267 273.762 224.294 274.479 222.188 274.479Z" fill="white"/>
<path d="M247.687 291.143H237.639V289.709H246.141V281.82H247.687V291.143Z" fill="white"/>
<path d="M198.219 253.133H196.673V243.81H206.721V245.244H198.219V253.133Z" fill="white"/>
</g>
<g clip-path="url(#clip2)" filter="url(#filter0_d)">
<path d="M356.872 40.6042L348.922 39.8046C351.49 38.45 354.8 36.7048 357.358 35.3603C357.921 35.064 358.149 34.4111 357.9 33.8078C357.65 33.204 357.026 32.9028 356.418 33.0914C356.418 33.0914 352.032 34.4483 347.705 35.7878C350.373 32.6601 353.512 28.9819 355.869 26.2265C356.312 25.7083 356.295 24.9941 355.829 24.5284C355.363 24.0626 354.649 24.0463 354.132 24.4891C354.132 24.4891 349.168 28.7244 344.779 32.4703C346.023 28.6366 347.483 24.1391 348.576 20.7781C348.788 20.13 348.5 19.4764 347.891 19.224C347.282 18.9715 346.615 19.2298 346.307 19.8369C346.307 19.8369 343.342 25.6494 340.721 30.7895C340.404 26.7901 340.032 22.0877 339.755 18.534C339.702 17.8544 339.185 17.3611 338.526 17.3611C338.526 17.3611 338.526 17.3611 338.526 17.3611C337.867 17.3611 337.35 17.8543 337.297 18.5333C337.297 18.5333 336.782 25.0375 336.328 30.7897C334.484 27.1745 332.353 22.9965 330.745 19.836C330.436 19.2293 329.77 18.9719 329.161 19.2241C328.553 19.4764 328.264 20.1298 328.475 20.7774C328.475 20.7774 330.488 26.9829 332.269 32.4707C328.287 29.0736 325.148 26.3938 322.921 24.4889C322.403 24.0458 321.689 24.0625 321.223 24.5285C320.757 24.9947 320.741 25.7091 321.183 26.2261L329.282 35.7159C326.045 34.6967 322.389 33.5452 319.605 32.6651C318.983 32.4686 318.35 32.7649 318.099 33.3698C317.848 33.9753 318.086 34.6332 318.664 34.9339C318.664 34.9339 323.476 37.4412 327.943 39.768C324.953 40.0524 321.691 40.3621 319.114 40.6038C318.486 40.6631 318.03 41.1792 318.03 41.8311C318.03 42.4836 318.486 43.0003 319.114 43.0595C319.258 43.0731 332.127 44.2967 335.635 44.6292L334.632 55.7896C334.613 56.0075 334.686 56.2236 334.833 56.3852C334.981 56.5467 335.19 56.6387 335.409 56.6387H341.643C341.862 56.6387 342.071 56.5464 342.219 56.3846C342.367 56.2227 342.439 56.0062 342.419 55.788L341.393 44.615L342.388 44.5145C345.648 44.1852 352.432 43.5 356.872 43.0592C356.872 43.0592 356.872 43.0591 356.872 43.0591C357.486 42.9978 357.931 42.4818 357.931 41.8322C357.931 41.1819 357.485 40.6655 356.872 40.6042ZM336.261 55.0802V55.08L337.199 44.6474C337.207 44.6456 337.214 44.643 337.222 44.6411C337.272 44.6294 337.321 44.6167 337.369 44.6023C337.376 44.6001 337.383 44.5983 337.391 44.5961C337.445 44.5795 337.498 44.5608 337.551 44.541C337.564 44.5358 337.578 44.5303 337.591 44.5251C337.634 44.508 337.677 44.4898 337.718 44.4705C337.728 44.4662 337.737 44.4624 337.747 44.4579V49.3911C337.747 49.8214 338.095 50.1704 338.526 50.1704C338.956 50.1704 339.305 49.8214 339.305 49.3911V44.4957C339.352 44.5167 339.4 44.5366 339.449 44.5547C339.453 44.5563 339.458 44.5577 339.462 44.5594C339.513 44.5779 339.564 44.5946 339.617 44.6099C339.63 44.6138 339.643 44.6176 339.656 44.6212C339.712 44.6368 339.769 44.6509 339.827 44.6627C339.829 44.663 339.83 44.6635 339.832 44.6638L340.789 55.0802H336.261V55.0802ZM342.231 42.9638L340.465 43.142C340.403 43.1485 340.357 43.1532 340.327 43.1561C339.668 43.1388 339.38 42.5991 339.318 42.0608C339.309 41.9838 339.305 41.9071 339.305 41.8317V38.1765C339.305 37.7462 338.956 37.3972 338.526 37.3972C338.095 37.3972 337.746 37.7462 337.746 38.1765V41.8317C337.746 41.9538 337.734 42.076 337.709 42.1942C337.6 42.7064 337.25 43.1424 336.615 43.1563L336.588 43.1538L336.554 43.1506C335.556 43.0566 327.432 42.2846 322.682 41.8331C325.352 41.5805 328.259 41.3037 330.713 41.0699C331.057 41.0371 331.338 40.7821 331.404 40.4432C331.47 40.1043 331.305 39.7624 330.999 39.6029C328.294 38.1937 325.056 36.5068 322.687 35.2726C325.246 36.0794 328.032 36.9567 330.427 37.7107L331.402 38.0176C331.733 38.1221 332.094 37.9943 332.286 37.7044C332.477 37.4146 332.454 37.0327 332.229 36.7684L325.057 28.3646C327.317 30.2943 330.093 32.6633 333.356 35.4467C333.621 35.673 334.005 35.6953 334.295 35.5016C334.585 35.3078 334.711 34.9449 334.603 34.6132C333.528 31.3022 332.196 27.197 331.235 24.2324C332.671 27.0515 334.245 30.1372 335.594 32.7814L336.193 33.9554C336.351 34.2661 336.697 34.4335 337.039 34.3657C337.381 34.2976 337.636 34.0104 337.664 33.6627C337.938 30.1924 338.279 25.8886 338.524 22.7812C338.813 26.4513 339.135 30.5098 339.386 33.6622C339.413 34.01 339.668 34.297 340.011 34.365C340.353 34.4326 340.698 34.2654 340.857 33.9545C342.437 30.8545 344.398 27.0104 345.814 24.2336C344.681 27.721 343.424 31.5965 342.446 34.6133C342.338 34.945 342.464 35.3079 342.754 35.5017C343.044 35.6954 343.428 35.6729 343.693 35.4464C346.34 33.1875 349.621 30.3869 351.992 28.3636C349.617 31.1443 346.984 34.2308 344.9 36.6736L344.774 36.8214C344.549 37.0853 344.526 37.4661 344.716 37.7557C344.907 38.0454 345.267 38.1742 345.598 38.0716C348.235 37.255 351.262 36.3182 353.516 35.6208C350.714 37.0967 347.734 38.6687 345.909 39.6321C345.605 39.7926 345.442 40.1332 345.508 40.4706C345.574 40.8079 345.853 41.0624 346.195 41.0967L353.488 41.8303C349.446 42.2351 344.77 42.7073 342.231 42.9638Z" fill="black"/>
<path d="M339.334 51.8209C339.324 51.771 339.309 51.7219 339.289 51.6752C339.27 51.6284 339.246 51.5832 339.218 51.5404C339.189 51.4983 339.156 51.4586 339.12 51.4219C339.084 51.386 339.045 51.3541 339.002 51.3252C338.96 51.2973 338.915 51.2731 338.868 51.2535C338.82 51.2341 338.771 51.2193 338.722 51.2091C338.622 51.1888 338.518 51.1888 338.417 51.2091C338.368 51.2193 338.318 51.234 338.272 51.2535C338.224 51.273 338.179 51.2973 338.137 51.3252C338.094 51.3541 338.054 51.386 338.018 51.4219C337.983 51.4586 337.95 51.4983 337.922 51.5404C337.894 51.5833 337.87 51.6284 337.85 51.6752C337.831 51.722 337.816 51.771 337.806 51.8209C337.796 51.8715 337.79 51.9222 337.79 51.9736C337.79 52.0242 337.796 52.0758 337.806 52.1255C337.816 52.1753 337.831 52.2245 337.85 52.2713C337.87 52.318 337.894 52.3639 337.922 52.406C337.95 52.4481 337.983 52.4887 338.018 52.5245C338.054 52.5604 338.094 52.5931 338.137 52.6212C338.179 52.6491 338.224 52.6734 338.272 52.6929C338.319 52.7123 338.368 52.7271 338.417 52.7373C338.467 52.7474 338.519 52.7529 338.569 52.7529C338.62 52.7529 338.672 52.7474 338.722 52.7373C338.771 52.7271 338.82 52.7124 338.868 52.6929C338.915 52.6734 338.96 52.6491 339.002 52.6212C339.045 52.5931 339.084 52.5604 339.12 52.5245C339.266 52.3788 339.349 52.1785 339.349 51.9736C339.349 51.9222 339.344 51.8716 339.334 51.8209Z" fill="black"/>
</g>
<g filter="url(#filter1_d)">
<path d="M34.7554 27L28.3054 39.15V48H23.9554V39.15L17.7754 27H22.3654L26.1754 35.22L30.2254 27H34.7554ZM44.2281 48.15C41.2881 48.15 39.0681 47.14 37.5681 45.12C36.0681 43.08 35.3181 40.49 35.3181 37.35C35.3181 34.21 36.0681 31.65 37.5681 29.67C39.0881 27.69 41.3081 26.7 44.2281 26.7C47.1681 26.7 49.3981 27.69 50.9181 29.67C52.4381 31.65 53.1981 34.21 53.1981 37.35C53.1981 41.65 51.8881 44.75 49.2681 46.65C47.8881 47.65 46.2081 48.15 44.2281 48.15ZM44.2881 30.15C43.2281 30.15 42.3381 30.52 41.6181 31.26C40.3381 32.54 39.6981 34.57 39.6981 37.35C39.6981 39.45 40.0881 41.2 40.8681 42.6C41.6481 43.98 42.7881 44.67 44.2881 44.67C45.8081 44.67 46.9481 43.97 47.7081 42.57C48.4681 41.15 48.8481 39.43 48.8481 37.41C48.8481 35.37 48.4381 33.65 47.6181 32.25C46.8181 30.85 45.7081 30.15 44.2881 30.15ZM63.6812 48.15C60.7412 48.15 58.5212 47.14 57.0212 45.12C55.5212 43.08 54.7712 40.49 54.7712 37.35C54.7712 34.21 55.5212 31.65 57.0212 29.67C58.5412 27.69 60.7612 26.7 63.6812 26.7C66.6212 26.7 68.8512 27.69 70.3712 29.67C71.8912 31.65 72.6512 34.21 72.6512 37.35C72.6512 41.65 71.3412 44.75 68.7212 46.65C67.3412 47.65 65.6612 48.15 63.6812 48.15ZM63.7412 30.15C62.6812 30.15 61.7912 30.52 61.0712 31.26C59.7912 32.54 59.1512 34.57 59.1512 37.35C59.1512 39.45 59.5412 41.2 60.3212 42.6C61.1012 43.98 62.2412 44.67 63.7412 44.67C65.2612 44.67 66.4012 43.97 67.1612 42.57C67.9212 41.15 68.3012 39.43 68.3012 37.41C68.3012 35.37 67.8912 33.65 67.0712 32.25C66.2712 30.85 65.1612 30.15 63.7412 30.15ZM90.6943 48H85.7743L81.1243 38.31L79.9243 39.66V48H75.5743V27H79.8943V34.68L85.6543 27H90.8143L84.1543 34.98L90.6943 48ZM108.222 48H103.902L102.402 42.87H96.0716L94.6016 48H90.4316L96.7316 27H101.862L108.222 48ZM101.592 39.42L99.2816 30.78L96.9416 39.42H101.592Z" fill="#202027"/>
</g>
<g opacity="0.2">
<path opacity="0.2" d="M171.693 580.536C171.733 580.782 171.787 581.022 171.853 581.255C172.881 580.653 173.92 580.075 174.97 579.523C174.961 579.458 174.952 579.39 174.941 579.322C174.835 578.628 174.61 577.987 174.286 577.464C173.866 576.802 173.325 576.482 172.799 576.677C172.272 576.873 171.89 577.541 171.715 578.421C171.585 579.111 171.577 579.84 171.693 580.536Z" fill="#3F3D56"/>
<path opacity="0.2" d="M173.17 579.22C174.072 578.919 174.585 577.215 174.315 575.413C174.046 573.612 173.096 572.395 172.193 572.696C171.291 572.996 170.778 574.701 171.048 576.502C171.318 578.304 172.268 579.52 173.17 579.22Z" fill="#3F3D56"/>
<path opacity="0.2" d="M172.537 575.245C173.439 574.945 173.952 573.241 173.682 571.439C173.413 569.637 172.463 568.421 171.56 568.722C170.658 569.022 170.145 570.727 170.415 572.528C170.684 574.33 171.634 575.546 172.537 575.245Z" fill="#3F3D56"/>
<path opacity="0.2" d="M171.902 571.274C172.805 570.973 173.317 569.269 173.048 567.467C172.778 565.666 171.828 564.449 170.926 564.75C170.024 565.05 169.511 566.755 169.78 568.556C170.05 570.358 171 571.574 171.902 571.274Z" fill="#3F3D56"/>
<path opacity="0.2" d="M171.268 567.301C172.17 567 172.683 565.296 172.413 563.494C172.144 561.693 171.194 560.476 170.291 560.777C169.389 561.078 168.876 562.782 169.146 564.583C169.416 566.385 170.366 567.602 171.268 567.301Z" fill="#3F3D56"/>
<path opacity="0.2" d="M172.521 534.58C172.674 534.065 172.804 533.534 172.909 532.993L168.473 533.514L173.097 531.844C173.318 530.109 173.29 528.323 173.015 526.605C172.774 525.084 172.342 523.645 171.741 522.364L166.329 529.586L171.014 521.038C169.102 517.99 166.209 516.54 163.333 517.617C159.037 519.221 156.404 525.846 157.452 532.415C157.869 535.068 158.868 537.437 160.291 539.146C160.052 539.948 159.87 540.785 159.749 541.644L165.99 543.977L159.601 543.15C159.524 544.481 159.591 545.823 159.799 547.122C160.216 549.776 161.216 552.145 162.638 553.854C161.891 556.359 161.718 559.162 162.147 561.828C163.196 568.397 167.528 572.421 171.825 570.819C176.121 569.217 178.754 562.592 177.706 556.023C177.288 553.37 176.289 551.001 174.867 549.292C175.614 546.787 175.787 543.984 175.357 541.317C174.942 538.662 173.943 536.29 172.521 534.58Z" fill="#0869FF"/>
<path opacity="0.1" d="M159.8 547.118C160.218 549.771 161.217 552.14 162.64 553.849C161.892 556.354 161.719 559.157 162.149 561.824C163.197 568.393 167.53 572.417 171.826 570.815C176.123 569.212 178.756 562.587 177.707 556.018C177.29 553.365 176.29 550.996 174.868 549.287C175.588 546.875 159.587 545.786 159.8 547.118Z" fill="black"/>
</g>
<g opacity="0.2">
<path opacity="0.2" d="M191.633 579.323C191.606 579.611 191.596 579.901 191.601 580.191C192.89 580.222 194.184 580.286 195.483 580.385C195.492 580.309 195.501 580.231 195.508 580.153C195.592 579.344 195.53 578.516 195.327 577.755C195.06 576.782 194.56 576.086 193.936 575.951C193.311 575.817 192.702 576.276 192.262 577.094C191.923 577.741 191.706 578.51 191.633 579.323Z" fill="#3F3D56"/>
<path opacity="0.2" d="M195.957 575.53C196.158 573.439 195.454 571.558 194.384 571.329C193.313 571.099 192.282 572.608 192.081 574.699C191.88 576.789 192.584 578.67 193.654 578.9C194.725 579.13 195.756 577.621 195.957 575.53Z" fill="#3F3D56"/>
<path opacity="0.2" d="M196.402 570.903C196.604 568.812 195.899 566.931 194.829 566.702C193.759 566.472 192.728 567.981 192.526 570.071C192.325 572.162 193.029 574.043 194.1 574.273C195.17 574.502 196.201 572.994 196.402 570.903Z" fill="#3F3D56"/>
<path opacity="0.2" d="M196.848 566.277C197.049 564.186 196.345 562.305 195.274 562.075C194.204 561.846 193.173 563.354 192.972 565.445C192.77 567.536 193.475 569.417 194.545 569.647C195.615 569.876 196.646 568.367 196.848 566.277Z" fill="#3F3D56"/>
<path opacity="0.2" d="M197.294 561.65C197.495 559.559 196.791 557.678 195.721 557.448C194.65 557.219 193.619 558.727 193.418 560.818C193.217 562.909 193.921 564.79 194.991 565.02C196.062 565.249 197.092 563.74 197.294 561.65Z" fill="#3F3D56"/>
<path opacity="0.2" d="M205.656 531.124C205.97 530.677 206.262 530.197 206.53 529.689L201.559 527.359L207.06 528.6C207.753 526.998 208.22 525.202 208.432 523.321C208.644 521.441 208.597 519.515 208.294 517.663L200.356 521.794L207.888 515.78C207.409 513.997 206.688 512.381 205.771 511.031C204.855 509.682 203.762 508.629 202.56 507.938C201.359 507.246 200.075 506.931 198.789 507.013C197.503 507.094 196.241 507.57 195.084 508.411C193.926 509.251 192.897 510.439 192.06 511.899C191.223 513.359 190.597 515.061 190.22 516.899C189.843 518.736 189.723 520.669 189.869 522.578C190.015 524.488 190.422 526.331 191.066 527.995C190.579 528.69 190.144 529.46 189.767 530.294L195.882 536.835L189.176 531.794C188.47 533.871 188.123 536.177 188.165 538.505C188.207 540.832 188.637 543.107 189.417 545.124C188.143 546.936 187.237 549.247 186.802 551.791C186.366 554.336 186.42 557.012 186.955 559.514C187.491 562.015 188.488 564.241 189.832 565.937C191.175 567.633 192.811 568.731 194.553 569.104C196.295 569.478 198.072 569.112 199.681 568.05C201.29 566.987 202.667 565.27 203.653 563.095C204.639 560.92 205.195 558.375 205.258 555.75C205.32 553.125 204.887 550.528 204.007 548.254C205.529 546.088 206.519 543.221 206.818 540.115C207.117 537.008 206.708 533.841 205.656 531.124Z" fill="#0869FF"/>
<path opacity="0.1" d="M188.255 536.133C187.953 539.24 188.362 542.408 189.417 545.124C188.143 546.936 187.237 549.247 186.802 551.791C186.366 554.336 186.42 557.012 186.955 559.514C187.491 562.015 188.488 564.241 189.831 565.937C191.175 567.633 192.811 568.731 194.553 569.104C196.295 569.478 198.072 569.112 199.681 568.05C201.29 566.987 202.667 565.27 203.653 563.095C204.639 560.92 205.195 558.375 205.258 555.75C205.32 553.126 204.887 550.528 204.007 548.254C205.478 546.162 188.405 534.578 188.255 536.133Z" fill="black"/>
</g>
<path opacity="0.1" d="M184 587C206.091 587 224 585.469 224 583.579C224 581.69 206.091 580.159 184 580.159C161.909 580.159 144 581.69 144 583.579C144 585.469 161.909 587 184 587Z" fill="#0869FF"/>
<path d="M210.152 582.201C211.185 582.201 212.022 581.961 212.022 581.664C212.022 581.367 211.185 581.126 210.152 581.126C209.118 581.126 208.281 581.367 208.281 581.664C208.281 581.961 209.118 582.201 210.152 582.201Z" fill="#0869FF"/>
<path d="M210.121 581.862C210.241 581.862 210.339 581.672 210.339 581.436C210.339 581.201 210.241 581.01 210.121 581.01C210 581.01 209.902 581.201 209.902 581.436C209.902 581.672 210 581.862 210.121 581.862Z" fill="#3F3D56"/>
<path d="M210.121 581.342C210.241 581.342 210.339 581.151 210.339 580.916C210.339 580.68 210.241 580.49 210.121 580.49C210 580.49 209.902 580.68 209.902 580.916C209.902 581.151 210 581.342 210.121 581.342Z" fill="#3F3D56"/>
<path d="M210.121 580.822C210.241 580.822 210.339 580.631 210.339 580.396C210.339 580.161 210.241 579.97 210.121 579.97C210 579.97 209.902 580.161 209.902 580.396C209.902 580.631 210 580.822 210.121 580.822Z" fill="#3F3D56"/>
<path d="M210.121 580.302C210.241 580.302 210.339 580.111 210.339 579.876C210.339 579.641 210.241 579.45 210.121 579.45C210 579.45 209.902 579.641 209.902 579.876C209.902 580.111 210 580.302 210.121 580.302Z" fill="#3F3D56"/>
<path d="M210.121 579.781C210.241 579.781 210.339 579.591 210.339 579.355C210.339 579.12 210.241 578.929 210.121 578.929C210 578.929 209.902 579.12 209.902 579.355C209.902 579.591 210 579.781 210.121 579.781Z" fill="#3F3D56"/>
<path d="M210.121 579.262C210.241 579.262 210.339 579.071 210.339 578.836C210.339 578.6 210.241 578.41 210.121 578.41C210 578.41 209.902 578.6 209.902 578.836C209.902 579.071 210 579.262 210.121 579.262Z" fill="#3F3D56"/>
<path d="M210.121 578.742C210.241 578.742 210.339 578.551 210.339 578.316C210.339 578.081 210.241 577.89 210.121 577.89C210 577.89 209.902 578.081 209.902 578.316C209.902 578.551 210 578.742 210.121 578.742Z" fill="#3F3D56"/>
<path d="M210.935 574.757C210.965 574.701 210.992 574.641 211.017 574.578L210.444 574.438L211.063 574.445C211.122 574.252 211.155 574.043 211.158 573.831C211.162 573.619 211.136 573.408 211.083 573.211L210.253 573.855L211.019 573.014C210.947 572.828 210.851 572.666 210.736 572.538C210.62 572.41 210.488 572.319 210.348 572.271C210.208 572.222 210.063 572.218 209.922 572.257C209.781 572.296 209.646 572.379 209.527 572.499C209.408 572.619 209.307 572.775 209.231 572.956C209.154 573.138 209.103 573.341 209.081 573.553C209.059 573.765 209.067 573.981 209.104 574.188C209.141 574.396 209.206 574.589 209.295 574.757C209.249 574.845 209.209 574.94 209.176 575.041L209.916 575.617L209.124 575.22C209.068 575.465 209.055 575.728 209.085 575.984C209.115 576.239 209.187 576.48 209.295 576.683C209.174 576.912 209.099 577.188 209.078 577.479C209.057 577.769 209.091 578.063 209.177 578.326C209.262 578.588 209.396 578.81 209.562 578.965C209.728 579.12 209.92 579.202 210.115 579.202C210.311 579.202 210.503 579.12 210.669 578.965C210.835 578.81 210.968 578.588 211.054 578.326C211.139 578.063 211.174 577.769 211.153 577.479C211.132 577.188 211.056 576.912 210.935 576.683C211.08 576.408 211.159 576.07 211.159 575.721C211.159 575.372 211.08 575.033 210.935 574.758V574.757Z" fill="#0869FF"/>
<path opacity="0.1" d="M209.072 575.719C209.071 576.068 209.15 576.407 209.294 576.682C209.173 576.911 209.098 577.187 209.077 577.478C209.056 577.768 209.09 578.062 209.175 578.324C209.261 578.587 209.394 578.809 209.56 578.964C209.726 579.119 209.918 579.201 210.114 579.201C210.31 579.201 210.501 579.119 210.667 578.964C210.833 578.809 210.967 578.587 211.052 578.324C211.138 578.062 211.172 577.768 211.151 577.478C211.13 577.187 211.055 576.911 210.934 576.682C211.075 576.417 209.072 575.545 209.072 575.719Z" fill="black"/>
<path d="M167.194 586.523C168.574 586.523 169.693 586.202 169.693 585.806C169.693 585.41 168.574 585.089 167.194 585.089C165.814 585.089 164.695 585.41 164.695 585.806C164.695 586.202 165.814 586.523 167.194 586.523Z" fill="#0869FF"/>
<path d="M167.152 586.07C167.313 586.07 167.443 585.815 167.443 585.502C167.443 585.188 167.313 584.933 167.152 584.933C166.991 584.933 166.861 585.188 166.861 585.502C166.861 585.815 166.991 586.07 167.152 586.07Z" fill="#3F3D56"/>
<path d="M167.152 585.375C167.313 585.375 167.443 585.12 167.443 584.806C167.443 584.492 167.313 584.238 167.152 584.238C166.991 584.238 166.861 584.492 166.861 584.806C166.861 585.12 166.991 585.375 167.152 585.375Z" fill="#3F3D56"/>
<path d="M167.152 584.679C167.313 584.679 167.443 584.425 167.443 584.111C167.443 583.797 167.313 583.543 167.152 583.543C166.991 583.543 166.861 583.797 166.861 584.111C166.861 584.425 166.991 584.679 167.152 584.679Z" fill="#3F3D56"/>
<path d="M167.152 583.985C167.313 583.985 167.443 583.731 167.443 583.417C167.443 583.103 167.313 582.849 167.152 582.849C166.991 582.849 166.861 583.103 166.861 583.417C166.861 583.731 166.991 583.985 167.152 583.985Z" fill="#3F3D56"/>
<path d="M167.152 583.29C167.313 583.29 167.443 583.036 167.443 582.722C167.443 582.408 167.313 582.154 167.152 582.154C166.991 582.154 166.861 582.408 166.861 582.722C166.861 583.036 166.991 583.29 167.152 583.29Z" fill="#3F3D56"/>
<path d="M167.152 582.595C167.313 582.595 167.443 582.341 167.443 582.027C167.443 581.713 167.313 581.458 167.152 581.458C166.991 581.458 166.861 581.713 166.861 582.027C166.861 582.341 166.991 582.595 167.152 582.595Z" fill="#3F3D56"/>
<path d="M167.152 581.901C167.313 581.901 167.443 581.647 167.443 581.333C167.443 581.019 167.313 580.764 167.152 580.764C166.991 580.764 166.861 581.019 166.861 581.333C166.861 581.647 166.991 581.901 167.152 581.901Z" fill="#3F3D56"/>
<path d="M168.242 576.578C168.281 576.502 168.317 576.422 168.35 576.34L167.586 576.152L168.413 576.162C168.492 575.904 168.536 575.625 168.54 575.342C168.545 575.058 168.51 574.776 168.439 574.513L167.33 575.372L168.353 574.255C168.256 574.009 168.127 573.795 167.973 573.627C167.819 573.458 167.644 573.339 167.458 573.276C167.272 573.213 167.079 573.207 166.891 573.26C166.704 573.313 166.525 573.422 166.367 573.582C166.209 573.742 166.075 573.948 165.973 574.189C165.87 574.429 165.802 574.699 165.772 574.98C165.743 575.261 165.752 575.549 165.8 575.825C165.848 576.101 165.933 576.359 166.05 576.583C165.989 576.701 165.935 576.829 165.891 576.963L166.884 577.735L165.826 577.206C165.751 577.533 165.732 577.883 165.771 578.224C165.81 578.565 165.905 578.886 166.047 579.159C165.886 579.466 165.785 579.834 165.757 580.222C165.729 580.61 165.775 581.002 165.89 581.353C166.004 581.704 166.182 582 166.404 582.207C166.625 582.414 166.882 582.524 167.143 582.524C167.405 582.524 167.661 582.414 167.882 582.207C168.104 582 168.282 581.704 168.397 581.353C168.511 581.002 168.557 580.61 168.529 580.222C168.501 579.834 168.4 579.466 168.239 579.159C168.432 578.792 168.537 578.339 168.537 577.873C168.537 577.406 168.432 576.954 168.239 576.587L168.242 576.578Z" fill="#0869FF"/>
<path opacity="0.1" d="M165.752 577.863C165.751 578.33 165.856 578.783 166.048 579.15C165.886 579.457 165.786 579.825 165.758 580.213C165.73 580.602 165.776 580.993 165.89 581.345C166.005 581.696 166.183 581.992 166.404 582.199C166.626 582.406 166.882 582.515 167.144 582.515C167.405 582.515 167.662 582.406 167.883 582.199C168.105 581.992 168.283 581.696 168.397 581.345C168.512 580.993 168.557 580.602 168.53 580.213C168.502 579.825 168.401 579.457 168.24 579.15C168.428 578.796 165.752 577.631 165.752 577.863Z" fill="black"/>
<path d="M180.352 554.22C180.163 552.748 179.953 551.273 179.918 549.775C179.897 548.892 179.939 547.994 179.862 547.114C179.825 546.681 179.759 546.256 179.694 545.831L179.432 544.131C179.462 543.805 179.453 543.474 179.407 543.152C179.381 542.983 179.346 542.816 179.303 542.655C179.547 542.141 179.748 541.586 179.902 540.999C179.972 540.735 180.032 540.453 180.004 540.173C179.951 539.636 179.602 539.281 179.278 539.017C179.081 538.857 178.874 538.702 178.649 538.677C178.492 538.667 178.335 538.712 178.192 538.808C178.048 538.904 177.921 539.047 177.821 539.228C177.766 538.793 177.785 538.345 177.874 537.923C177.681 537.794 177.487 537.673 177.291 537.554C177.263 537.173 177.253 536.789 177.261 536.406C177.266 535.946 177.271 535.481 177.289 535.02C177.815 534.733 178.269 534.214 178.591 533.531C178.913 532.848 179.088 532.034 179.091 531.199C179.091 531.151 179.091 531.105 179.091 531.058C179.235 530.674 179.325 530.251 179.358 529.814C179.391 529.376 179.365 528.934 179.282 528.512C179.065 527.408 178.499 526.499 177.817 525.937C177.134 525.376 176.343 525.138 175.56 525.097C175.297 525.074 175.034 525.098 174.775 525.17C174.498 525.272 174.23 525.42 173.975 525.612C173.584 525.881 173.19 526.176 172.897 526.64C172.389 527.449 172.275 528.638 172.33 529.73C172.404 531.164 172.725 532.553 173.096 533.888C173.22 534.329 173.352 534.777 173.555 535.153C173.712 535.444 173.986 535.461 174.203 535.258C174.186 535.611 174.181 535.964 174.187 536.318C173.786 536.297 173.394 536.395 173.072 536.732C172.924 536.89 172.784 537.138 172.816 537.406C172.915 537.409 173.01 537.465 173.084 537.563C173.157 537.661 173.206 537.795 173.22 537.941C173.236 538.176 173.157 538.4 173.08 538.603C173.047 538.693 173.014 538.785 172.98 538.875C172.662 539.383 172.336 540.018 172.307 540.649C172.255 540.656 172.203 540.667 172.152 540.683C171.864 540.762 171.577 540.909 171.294 541.019L169.244 541.825L168.738 542.034L167.925 542.354C167.407 542.558 166.88 542.766 166.421 543.174C165.962 543.583 165.572 544.224 165.479 544.996C165.434 545.38 165.462 545.78 165.406 546.16C165.406 546.178 165.401 546.194 165.398 546.211C165.351 546.452 165.288 546.685 165.21 546.907C164.75 548.352 164.424 549.926 164.485 551.516C164.523 552.493 164.707 553.445 164.886 554.385C165.074 555.347 165.259 556.308 165.442 557.27C165.562 557.958 165.715 558.633 165.899 559.289C166.215 560.34 166.683 561.274 167.269 562.022C167.434 562.243 167.618 562.428 167.817 562.574C168.119 562.769 168.449 562.849 168.778 562.807C168.867 562.798 168.954 562.784 169.04 562.763C169.675 562.613 170.268 562.156 170.811 561.642C171.038 561.427 171.26 561.201 171.477 560.963C171.504 561.334 171.553 561.7 171.624 562.058C171.672 562.304 171.732 562.556 171.712 562.811C171.686 563.167 171.513 563.458 171.423 563.791C171.233 564.495 171.428 565.28 171.46 566.034C171.491 566.742 171.375 567.444 171.283 568.14C171.128 569.301 171.037 570.479 171.01 571.662C171.009 572.11 170.989 572.557 170.951 573.002C170.882 573.628 170.721 574.233 170.693 574.866C170.65 575.853 170.935 576.818 170.909 577.806C170.879 578.966 170.423 580.092 170.582 581.227C170.602 581.369 170.656 581.534 170.743 581.57L170.7 581.628C170.569 581.809 170.442 582.144 170.591 582.29C170.625 582.321 170.663 582.34 170.702 582.348C170.932 582.42 171.164 582.485 171.395 582.545C171.39 582.864 171.417 583.183 171.475 583.49C171.517 583.535 171.56 583.576 171.603 583.615C171.57 583.745 171.573 583.871 171.65 583.946C171.684 583.976 171.722 583.996 171.761 584.003C173.666 584.59 175.611 584.83 177.554 584.72C177.902 584.7 178.265 584.663 178.561 584.398C178.858 584.133 179.058 583.569 178.917 583.105C178.792 582.694 178.465 582.517 178.172 582.38L177.827 582.221C177.871 582.104 177.897 581.974 177.902 581.84C177.908 581.706 177.893 581.572 177.858 581.449C177.733 581.038 177.406 580.86 177.113 580.724L176.319 580.356C176.215 580.319 176.117 580.25 176.031 580.154C175.974 580.07 175.922 579.979 175.874 579.883C175.76 579.687 175.609 579.547 175.442 579.478C175.433 579.227 175.437 578.975 175.453 578.725L175.675 574.73C175.724 573.825 175.773 572.902 175.632 572.018C175.575 571.66 175.484 571.292 175.539 570.933C175.626 570.346 176.04 570.019 176.322 569.583C176.748 568.921 176.881 567.98 176.978 567.084C177.382 563.386 177.509 559.633 177.357 555.894C178.244 555.52 179.158 555.301 180.079 555.241C180.236 555.231 180.313 555.12 180.362 554.902C180.41 554.683 180.381 554.446 180.352 554.22ZM175.927 554.415C175.932 554.377 175.938 554.338 175.942 554.299L176.004 554.416L175.927 554.415Z" fill="url(#paint0_linear)"/>
<path d="M174.485 534.161C174.466 534.545 174.375 534.914 174.342 535.297C174.304 535.718 174.337 536.148 174.319 536.572C174.3 536.997 174.218 537.444 174.001 537.721C175.261 537.884 176.501 538.284 177.692 538.913C177.332 538.251 177.323 537.326 177.332 536.476C177.343 535.22 177.358 533.938 177.633 532.752C176.813 532.479 175.963 532.462 175.139 532.704C174.96 532.757 174.418 532.724 174.337 532.973C174.279 533.156 174.498 533.883 174.485 534.161Z" fill="#A1616A"/>
<path opacity="0.1" d="M174.485 534.161C174.466 534.545 174.375 534.914 174.342 535.297C174.304 535.718 174.337 536.148 174.319 536.572C174.3 536.997 174.218 537.444 174.001 537.721C175.261 537.884 176.501 538.284 177.692 538.913C177.332 538.251 177.323 537.326 177.332 536.476C177.343 535.22 177.358 533.938 177.633 532.752C176.813 532.479 175.963 532.462 175.139 532.704C174.96 532.757 174.418 532.724 174.337 532.973C174.279 533.156 174.498 533.883 174.485 534.161Z" fill="black"/>
<path d="M175.976 579.888C176.02 579.986 176.069 580.079 176.123 580.165C176.207 580.262 176.303 580.33 176.405 580.367L177.18 580.735C177.468 580.871 177.787 581.048 177.909 581.458C178.047 581.922 177.851 582.486 177.561 582.75C177.271 583.013 176.916 583.052 176.577 583.072C174.677 583.181 172.775 582.94 170.914 582.356C170.875 582.347 170.839 582.328 170.805 582.298C170.657 582.149 170.784 581.816 170.912 581.636C171.411 580.93 171.953 580.19 172.633 580.026C172.99 579.939 173.349 579.974 173.704 579.847C173.959 579.756 174.2 579.598 174.454 579.504C174.928 579.331 175.637 579.269 175.976 579.888Z" fill="#46455B"/>
<path opacity="0.1" d="M175.976 579.888C176.02 579.986 176.069 580.079 176.123 580.165C176.207 580.262 176.303 580.33 176.405 580.367L177.18 580.735C177.468 580.871 177.787 581.048 177.909 581.458C178.047 581.922 177.851 582.486 177.561 582.75C177.271 583.013 176.916 583.052 176.577 583.072C174.677 583.181 172.775 582.94 170.914 582.356C170.875 582.347 170.839 582.328 170.805 582.298C170.657 582.149 170.784 581.816 170.912 581.636C171.411 580.93 171.953 580.19 172.633 580.026C172.99 579.939 173.349 579.974 173.704 579.847C173.959 579.756 174.2 579.598 174.454 579.504C174.928 579.331 175.637 579.269 175.976 579.888Z" fill="black"/>
<path d="M172.085 554.93C171.703 556.436 171.679 558.093 172.018 559.621C171.76 559.579 171.649 560.1 171.655 560.489C171.665 561.029 171.72 561.566 171.819 562.086C171.866 562.334 171.924 562.585 171.905 562.839C171.879 563.194 171.71 563.486 171.622 563.818C171.437 564.521 171.627 565.304 171.659 566.058C171.689 566.765 171.576 567.466 171.485 568.161C171.334 569.321 171.245 570.497 171.218 571.678C171.218 572.125 171.198 572.572 171.16 573.016C171.094 573.643 170.938 574.246 170.909 574.879C170.867 575.863 171.145 576.828 171.12 577.815C171.091 578.972 170.644 580.098 170.8 581.236C170.822 581.396 170.882 581.584 170.992 581.586C172.107 581.607 173.149 581.145 174.252 581.387C174.365 577.578 174.474 573.751 174.977 570.011C175.42 566.682 176.172 563.391 176.102 559.996C176.061 558.055 175.752 556.152 175.565 554.23C174.386 553.839 173.152 554.088 172.085 554.93Z" fill="#BBBDC8"/>
<path opacity="0.1" d="M172.085 554.93C171.703 556.436 171.679 558.093 172.018 559.621C171.76 559.579 171.649 560.1 171.655 560.489C171.665 561.029 171.72 561.566 171.819 562.086C171.866 562.334 171.924 562.585 171.905 562.839C171.879 563.194 171.71 563.486 171.622 563.818C171.437 564.521 171.627 565.304 171.659 566.058C171.689 566.765 171.576 567.466 171.485 568.161C171.334 569.321 171.245 570.497 171.218 571.678C171.218 572.125 171.198 572.572 171.16 573.016C171.094 573.643 170.938 574.246 170.909 574.879C170.867 575.863 171.145 576.828 171.12 577.815C171.091 578.972 170.644 580.098 170.8 581.236C170.822 581.396 170.882 581.584 170.992 581.586C172.107 581.607 173.149 581.145 174.252 581.387C174.365 577.578 174.474 573.751 174.977 570.011C175.42 566.682 176.172 563.391 176.102 559.996C176.061 558.055 175.752 556.152 175.565 554.23C174.386 553.839 173.152 554.088 172.085 554.93Z" fill="black"/>
<path d="M177.011 581.543C177.055 581.641 177.105 581.734 177.159 581.82C177.242 581.917 177.338 581.986 177.44 582.022L178.215 582.39C178.503 582.527 178.822 582.703 178.944 583.114C179.082 583.577 178.886 584.141 178.596 584.405C178.306 584.668 177.951 584.707 177.612 584.727C175.712 584.836 173.81 584.596 171.949 584.011C171.911 584.002 171.874 583.983 171.84 583.953C171.692 583.804 171.819 583.471 171.947 583.291C172.446 582.585 172.989 581.845 173.668 581.681C174.025 581.594 174.384 581.63 174.739 581.503C174.994 581.411 175.235 581.253 175.489 581.159C175.963 580.986 176.672 580.924 177.011 581.543Z" fill="#46455B"/>
<path d="M172.47 555.04C172.184 555.591 172.1 556.32 172.138 557.01C172.177 557.701 172.333 558.364 172.486 559.019C172.282 559.298 172.325 559.779 172.351 560.19C172.448 561.714 172.093 563.236 172.145 564.766C172.166 565.409 172.26 566.043 172.282 566.687C172.307 567.39 172.247 568.092 172.191 568.791C171.832 573.262 171.634 577.76 171.599 582.263C171.599 582.678 171.595 583.099 171.673 583.497C172.211 584.087 172.886 584.166 173.536 583.946C174.187 583.725 174.781 583.233 175.364 582.747C175.684 582.5 175.987 582.209 176.269 581.876C176.356 581.784 176.419 581.653 176.451 581.503C176.513 581.061 176.102 580.862 175.866 580.576C175.523 580.16 175.528 579.39 175.564 578.732L175.778 574.742C175.827 573.838 175.874 572.917 175.737 572.034C175.681 571.676 175.594 571.309 175.646 570.949C175.73 570.364 176.135 570.038 176.411 569.602C176.828 568.94 176.957 568.001 177.053 567.107C177.506 562.867 177.602 558.559 177.34 554.283C176.796 554.564 176.152 554.411 175.579 554.477C175.006 554.543 174.437 554.829 173.857 554.852C173.373 554.869 172.767 554.47 172.47 555.04Z" fill="#BBBDC8"/>
<path d="M176.384 535.359C177.895 535.359 179.12 533.531 179.12 531.276C179.12 529.021 177.895 527.193 176.384 527.193C174.874 527.193 173.649 529.021 173.649 531.276C173.649 533.531 174.874 535.359 176.384 535.359Z" fill="#A1616A"/>
<path d="M177.93 537.991C177.054 537.391 176.14 536.92 175.201 536.586C174.54 536.351 173.786 536.209 173.233 536.8C173.085 536.958 172.952 537.206 172.983 537.473C173.081 537.478 173.174 537.534 173.246 537.632C173.318 537.73 173.365 537.863 173.377 538.007C173.394 538.241 173.317 538.465 173.241 538.669L172.603 540.434C172.481 540.753 172.376 541.085 172.289 541.428C172.16 541.988 172.132 542.588 172.105 543.18L172.031 544.782C171.985 545.792 171.939 546.806 172 547.813C172.046 548.574 172.152 549.337 172.08 550.093C172.021 550.701 171.849 551.271 171.752 551.87C171.57 552.995 171.653 554.229 171.301 555.262C171.444 555.163 171.605 555.141 171.758 555.2C172.829 555.494 173.671 556.756 174.711 557.238C174.973 556.666 175.329 556.245 175.622 555.713C175.84 555.314 175.985 554.837 176.041 554.329C176.263 554.77 176.452 555.115 176.584 555.627C176.608 555.746 176.648 555.856 176.702 555.95C176.842 556.153 177.072 556.075 177.259 555.99C178.176 555.577 179.124 555.337 180.081 555.276C180.235 555.266 180.31 555.156 180.358 554.937C180.406 554.719 180.379 554.482 180.35 554.257C180.166 552.786 179.961 551.313 179.927 549.818C179.906 548.935 179.947 548.041 179.872 547.16C179.835 546.729 179.771 546.304 179.707 545.88L179.179 542.379C179.15 542.183 179.009 542.055 178.949 541.876C178.707 541.143 178.243 540.613 178.004 539.878C177.823 539.285 177.797 538.612 177.93 537.991Z" fill="#46455B"/>
<path d="M174.092 532.91C174.089 532.853 174.098 532.796 174.118 532.747C174.148 532.701 174.184 532.667 174.225 532.649C174.335 532.57 174.425 532.441 174.482 532.279C174.538 532.118 174.558 531.933 174.538 531.754L174.796 531.673L174.804 530.328C175.189 530.01 175.713 530.251 176.075 529.877C176.278 529.665 176.382 529.305 176.506 528.985C176.631 528.665 176.816 528.343 177.062 528.316C176.978 528.639 176.941 528.985 176.956 529.331C176.971 529.677 177.036 530.013 177.148 530.317C177.406 530.121 177.623 529.82 177.771 529.447L177.899 530.551C177.902 530.619 177.922 530.683 177.954 530.731C178.021 530.805 178.112 530.712 178.172 530.62L178.506 530.129C178.647 530.657 178.744 531.209 178.794 531.772C179.344 530.976 179.515 529.696 179.304 528.597C179.092 527.498 178.538 526.587 177.871 526.026C177.204 525.464 176.431 525.228 175.666 525.186C175.409 525.163 175.151 525.188 174.898 525.26C174.627 525.362 174.365 525.51 174.116 525.701C173.734 525.969 173.348 526.264 173.062 526.727C172.566 527.535 172.454 528.722 172.509 529.817C172.583 531.252 172.895 532.636 173.258 533.969C173.378 534.411 173.507 534.858 173.706 535.234C174.005 535.8 174.741 535.33 174.647 534.211C174.582 533.412 174.092 533.72 174.092 532.91Z" fill="#3F3D56"/>
<path d="M175.128 554.768C174.205 557.582 172.788 559.969 171.028 561.676C170.496 562.189 169.919 562.646 169.297 562.796C169.212 562.817 169.127 562.831 169.04 562.84C168.72 562.88 168.397 562.798 168.104 562.603C167.909 562.457 167.729 562.271 167.568 562.051C166.993 561.299 166.536 560.368 166.229 559.322C166.049 558.666 165.9 557.992 165.782 557.305C165.601 556.344 165.42 555.383 165.239 554.422C165.062 553.482 164.884 552.53 164.847 551.553C164.787 549.965 165.107 548.393 165.556 546.95C165.632 546.728 165.694 546.495 165.74 546.255C165.74 546.239 165.745 546.222 165.747 546.204C165.8 545.824 165.773 545.425 165.821 545.041C165.911 544.269 166.293 543.629 166.741 543.222C167.189 542.815 167.702 542.606 168.211 542.403L169.005 542.084L169.497 541.887L171.5 541.082C171.777 540.972 172.058 540.825 172.339 540.751C172.654 540.663 172.651 540.709 172.676 541.168C172.721 542 172.706 542.818 172.824 543.642C172.935 544.429 173.132 545.187 173.28 545.959C173.653 547.909 173.715 549.962 174.01 551.942C174.077 552.394 174.17 552.875 174.413 553.156C174.692 553.487 175.162 553.569 175.235 554.087C175.263 554.318 175.194 554.554 175.128 554.768Z" fill="#0869FF"/>
<path opacity="0.1" d="M169.297 562.791C169.212 562.812 169.127 562.827 169.04 562.836C168.72 562.877 168.398 562.797 168.104 562.603C167.909 562.456 167.729 562.271 167.568 562.051C166.993 561.299 166.536 560.368 166.229 559.322C166.049 558.666 165.9 557.992 165.782 557.305C165.601 556.344 165.42 555.383 165.239 554.422C165.062 553.482 164.884 552.53 164.847 551.553C164.787 549.965 165.107 548.393 165.556 546.95C165.632 546.728 165.694 546.495 165.74 546.255C165.74 546.239 165.745 546.222 165.747 546.204C166.954 546.521 168.401 549.966 169.148 554.48C169.698 557.856 169.722 560.964 169.297 562.791Z" fill="black"/>
<path opacity="0.1" d="M171.478 550.914L171.276 550.966C171.068 550.151 170.861 549.336 170.618 548.544C170.492 548.13 170.355 547.722 170.248 547.295C169.849 545.655 169.917 543.71 169.177 542.359C169.124 542.259 169.064 542.168 168.997 542.087L169.49 541.89C169.921 542.907 170.225 544.033 170.387 545.212C170.467 545.788 170.512 546.378 170.643 546.932C170.753 547.352 170.88 547.762 171.022 548.161C171.303 549.02 171.514 549.959 171.478 550.914Z" fill="black"/>
<path d="M173.443 538.481C173.975 537.802 174.7 537.429 175.389 537.599C175.794 537.697 176.17 537.969 176.533 538.261C177.241 538.821 177.938 539.467 178.448 540.388C178.754 540.969 179.008 541.607 179.204 542.286C179.3 542.583 179.374 542.894 179.426 543.214C179.606 544.461 179.163 545.7 178.736 546.806L177.916 548.931C177.539 549.908 177.159 550.891 176.668 551.748C176.441 552.143 176.193 552.508 175.945 552.874L174.858 554.476C174.838 554.51 174.813 554.536 174.784 554.55C174.76 554.552 174.736 554.546 174.714 554.533C174.692 554.52 174.672 554.499 174.656 554.474L174.296 554.047C174.627 553.705 174.935 553.316 175.215 552.885C175.685 552.159 176.072 551.323 176.456 550.491L177.653 547.903C178.002 547.145 178.367 546.31 178.328 545.392C178.31 544.951 178.199 544.536 178.083 544.131C177.877 543.411 177.654 542.702 177.413 542.005C177.142 541.222 176.847 540.45 176.457 539.789C176.067 539.128 175.575 538.575 175.008 538.336C174.839 538.253 174.659 538.228 174.483 538.261C174.094 538.357 173.817 538.855 173.571 539.319L172.821 540.753C172.651 541.079 172.494 541.456 172.484 540.838C172.466 539.957 173.063 539.049 173.443 538.481Z" fill="#0869FF"/>
<path d="M173.675 548.159C173.823 549.008 174.041 549.973 174.589 550.295C174.977 550.523 175.432 550.338 175.768 549.964C176.104 549.59 176.342 549.062 176.56 548.529C176.746 548.05 176.95 547.588 177.172 547.146C177.61 546.325 178.207 545.674 178.503 544.718C178.59 544.433 178.651 544.129 178.75 543.855C178.856 543.603 178.975 543.364 179.108 543.141C179.448 542.512 179.72 541.807 179.914 541.051C179.982 540.788 180.041 540.505 180.014 540.226C179.962 539.689 179.621 539.335 179.304 539.072C179.111 538.912 178.909 538.756 178.689 538.732C178.368 538.694 178.052 538.953 177.855 539.331C177.665 539.723 177.559 540.191 177.55 540.674C177.528 541.262 177.605 541.873 177.477 542.43C177.408 542.689 177.315 542.932 177.198 543.149C176.782 543.978 176.268 544.686 175.681 545.238C175.665 544.82 175.605 544.41 175.502 544.021C175.445 543.807 174.344 544.021 174.2 544.056C173.916 544.118 173.366 544.166 173.187 544.57C173.009 544.974 173.23 545.653 173.303 546.06L173.675 548.159Z" fill="#A1616A"/>
<path d="M173.649 538.886C173.485 539.088 173.333 539.31 173.193 539.548C172.865 540.139 172.705 540.907 172.663 541.671C172.622 542.436 172.692 543.204 172.78 543.96C172.86 544.638 172.954 545.312 173.063 545.98C173.094 545.476 173.367 545.059 173.684 544.877C174.001 544.695 174.35 544.715 174.688 544.789C175.123 544.885 175.547 545.068 175.949 545.333L176.105 542.07C176.138 541.63 176.136 541.185 176.1 540.746C176.051 540.338 175.944 539.95 175.787 539.609C175.629 539.267 175.425 538.98 175.187 538.765C174.594 538.226 174.181 538.192 173.649 538.886Z" fill="#46455B"/>
<path d="M201.581 554.764C201.511 553.878 201.338 553.018 201.071 552.22C200.907 551.735 200.708 551.27 200.606 550.751C200.522 550.328 200.506 549.883 200.439 549.454C200.373 549.025 200.255 548.614 200.16 548.195C199.491 545.216 199.994 541.956 199.778 538.833C199.698 537.681 199.461 536.418 198.792 535.818C198.394 535.461 197.916 535.406 197.448 535.376L197.235 535.362L196.892 535.337C196.395 535.3 195.896 535.273 195.413 535.428C194.821 535.621 194.121 536.242 193.934 537.144C193.832 537.066 193.729 536.996 193.635 536.931C193.254 536.679 192.855 536.494 192.445 536.379C192.796 536.247 193.136 536.052 193.455 535.797C194.194 535.154 194.366 533.279 194.517 532.024C194.668 530.769 194.53 529.473 194.279 528.254C194.197 527.821 194.084 527.402 193.943 527.004C193.748 526.48 193.484 526.022 193.165 525.658C192.846 525.293 192.481 525.031 192.091 524.887C191.701 524.743 191.296 524.721 190.9 524.821C190.504 524.921 190.127 525.143 189.791 525.471C189.101 526.145 188.46 527.126 187.933 528.074C187.86 528.204 187.55 528.665 187.653 528.859C187.711 528.97 187.901 528.881 188.101 528.749C187.947 529.267 187.868 529.827 187.868 530.393C187.869 531.104 187.993 531.803 188.23 532.421C188.466 533.038 188.806 533.553 189.216 533.915L189.29 534.93V534.938C189.298 535.277 189.302 535.616 189.305 535.953C189.305 536.191 189.305 536.433 189.301 536.676C188.994 537.194 188.618 537.611 188.197 537.901C188.545 537.987 188.876 537.866 189.199 537.658C189.146 537.929 189.058 538.182 188.94 538.402C189.028 538.356 189.117 538.314 189.206 538.27C189.16 538.381 189.118 538.496 189.082 538.616C189.028 538.805 188.988 539.003 188.963 539.205C188.775 539.616 188.612 540.051 188.476 540.505C188.414 540.711 188.359 540.921 188.308 541.134V541.148C188.259 541.36 188.215 541.575 188.177 541.793C188.16 541.897 188.143 542.002 188.129 542.107C188.129 542.115 188.129 542.123 188.129 542.13C188.099 542.343 188.075 542.558 188.055 542.774C188.055 542.788 188.055 542.802 188.055 542.818C188.047 542.918 188.039 543.02 188.034 543.121C188.034 543.121 188.034 543.131 188.034 543.137C188.028 543.247 188.024 543.352 188.021 543.46C188.021 543.474 188.021 543.488 188.021 543.502C188.021 543.594 188.021 543.686 188.021 543.778V543.841C188.021 544.048 188.03 544.257 188.044 544.465C188.044 544.491 188.044 544.517 188.049 544.543C188.055 544.628 188.061 544.713 188.07 544.799C188.07 544.818 188.07 544.838 188.075 544.857C188.084 544.96 188.095 545.061 188.108 545.163C188.108 545.185 188.115 545.208 188.118 545.23C188.128 545.312 188.139 545.392 188.152 545.474L188.165 545.558C188.181 545.659 188.198 545.76 188.217 545.861C188.228 545.919 188.24 545.972 188.251 546.032C188.287 546.241 188.311 546.454 188.325 546.669L187.921 546.689C187.055 546.726 186.191 546.784 185.326 546.864C185.218 546.243 184.85 545.884 184.387 545.799C184.313 545.786 184.239 545.78 184.165 545.78C184.245 545.679 184.316 545.564 184.376 545.436C184.457 545.271 184.514 545.084 184.545 544.885C184.426 544.986 184.322 545.122 184.239 545.285C184.211 545.34 184.187 545.396 184.165 545.446V545.115C184.165 545.108 184.164 545.101 184.162 545.095C184.161 545.088 184.158 545.082 184.155 545.078C184.151 545.073 184.147 545.069 184.143 545.066C184.139 545.063 184.134 545.062 184.129 545.062H184.055C184.051 545.062 184.046 545.063 184.042 545.066C184.037 545.069 184.033 545.073 184.03 545.078C184.027 545.082 184.024 545.088 184.022 545.095C184.021 545.101 184.02 545.108 184.02 545.115V545.79H184.005H183.98C183.931 545.796 183.884 545.805 183.837 545.818C183.334 545.958 182.965 546.441 182.965 547.253C182.965 547.508 183.002 547.761 183.074 547.993C183.146 548.225 183.251 548.431 183.382 548.597C183.404 548.85 183.442 549.099 183.496 549.34C183.548 549.58 183.614 549.84 183.763 549.959C183.855 550.021 183.955 550.049 184.055 550.039C184.877 550.039 185.655 549.473 186.473 549.377C186.979 549.316 187.487 549.433 187.994 549.41C188.068 549.41 188.142 549.399 188.216 549.39C187.522 554.516 186.683 559.706 187.122 564.884C187.15 565.228 187.196 565.601 187.368 565.835C187.596 566.146 187.948 566.095 188.255 566.055C189.097 565.941 189.946 566.042 190.765 566.354C190.88 566.402 191.002 566.408 191.119 566.373C191.144 566.365 191.168 566.354 191.193 566.341L191.213 566.329C191.229 566.32 191.244 566.311 191.258 566.302L191.279 566.285L191.315 566.252C191.321 566.245 191.328 566.24 191.333 566.233C191.346 566.22 191.358 566.205 191.369 566.189L191.38 566.176C191.394 566.155 191.407 566.134 191.419 566.112L191.428 566.092C191.436 566.075 191.444 566.058 191.451 566.04C191.455 566.031 191.459 566.022 191.462 566.014C191.465 566.005 191.474 565.98 191.479 565.964C191.484 565.947 191.485 565.944 191.487 565.934C191.489 565.924 191.496 565.898 191.501 565.879C191.505 565.86 191.501 565.861 191.507 565.851C191.513 565.841 191.517 565.796 191.521 565.769V565.751C191.521 565.728 191.527 565.703 191.529 565.68C191.531 565.657 191.529 565.656 191.529 565.644C191.529 565.632 191.529 565.607 191.529 565.59V565.55C191.529 565.532 191.529 565.515 191.529 565.497V565.399C191.529 565.388 191.529 565.376 191.529 565.364C191.529 565.265 191.522 565.166 191.515 565.071C191.568 565.094 191.622 565.111 191.676 565.123C191.727 565.135 191.778 565.141 191.83 565.14H191.837C191.862 565.14 191.886 565.14 191.911 565.131C191.933 565.126 191.954 565.119 191.975 565.111H191.984C192.004 565.102 192.023 565.091 192.041 565.078L192.05 565.07C192.065 565.057 192.08 565.043 192.093 565.026L192.1 565.018C192.114 564.999 192.126 564.978 192.137 564.954L192.143 564.938C192.154 564.911 192.163 564.883 192.169 564.853C192.211 564.64 192.115 564.399 192.269 564.204C192.417 564.911 192.565 565.62 192.589 566.351C192.597 566.618 192.589 566.903 192.694 567.124C192.763 567.244 192.837 567.357 192.916 567.461C193.142 567.826 193.148 568.377 193.132 568.871C193.125 569.071 193.118 569.271 193.108 569.471C192.986 572.136 192.623 574.764 192.029 577.284C191.971 577.552 191.895 577.811 191.803 578.057C191.653 578.404 191.465 578.712 191.247 578.968C190.939 579.359 190.609 579.709 190.26 580.015C190.082 580.156 189.914 580.322 189.758 580.513C189.752 580.487 189.746 580.463 189.741 580.437C189.733 580.386 189.722 580.326 189.689 580.308C189.663 580.299 189.637 580.305 189.615 580.325C189.268 580.553 188.921 580.78 188.588 581.046C188.419 581.16 188.271 581.331 188.155 581.546C188.048 581.766 188.016 582.097 188.126 582.318C188.223 582.511 188.397 582.575 188.557 582.618C188.763 582.672 188.969 582.711 189.176 582.74C189.07 582.832 188.977 582.955 188.903 583.102C188.796 583.322 188.765 583.653 188.875 583.874C188.972 584.067 189.145 584.131 189.306 584.174C190.617 584.519 191.961 584.284 193.292 584.226C193.724 584.205 194.166 584.201 194.576 583.991C194.657 583.955 194.732 583.896 194.798 583.818C194.984 583.573 194.966 583.142 194.933 582.777L194.798 581.285C194.778 581.285 194.759 581.295 194.739 581.302C194.853 579.9 195.056 578.518 195.346 577.175C195.797 575.084 196.469 573.024 196.46 570.836C196.46 570.783 196.46 570.725 196.46 570.677C196.447 569.991 196.365 569.314 196.312 568.632C196.228 567.491 196.238 566.34 196.243 565.194C196.237 564.744 196.258 564.295 196.306 563.851C196.306 563.835 196.311 563.821 196.313 563.806L197.541 563.757C197.677 563.767 197.813 563.729 197.937 563.647C197.996 563.608 198.043 563.538 198.07 563.451C198.096 563.364 198.1 563.265 198.081 563.173C198.604 563.527 199.304 563.045 199.459 562.224C199.47 562.167 199.478 562.108 199.485 562.049C199.484 562.044 199.484 562.04 199.485 562.036C199.49 561.98 199.494 561.925 199.495 561.871C199.495 561.862 199.495 561.852 199.495 561.844C199.503 561.465 199.463 561.087 199.379 560.729C199.128 559.666 198.728 558.699 198.353 557.72C198.159 557.214 197.971 556.7 197.789 556.185L197.949 556.493C198.005 556.619 198.079 556.724 198.166 556.803C198.465 557.034 198.779 556.569 199.083 556.355C199.488 556.07 199.961 556.238 200.407 556.286C200.854 556.333 201.392 556.161 201.552 555.543C201.604 555.291 201.614 555.023 201.581 554.764ZM193.882 538.18C193.882 538.416 193.892 538.656 193.905 538.896C193.755 538.53 193.581 538.187 193.387 537.87L193.882 538.18Z" fill="url(#paint1_linear)"/>
<path d="M184.222 545.484C184.304 545.322 184.407 545.187 184.524 545.086C184.494 545.284 184.438 545.472 184.358 545.637C184.229 545.899 184.094 546.079 184.056 546.036C184.018 545.993 184.092 545.745 184.222 545.484Z" fill="#99D55C"/>
<path opacity="0.1" d="M184.238 545.504C184.298 545.384 184.373 545.283 184.46 545.207C184.437 545.354 184.395 545.493 184.336 545.615C184.24 545.809 184.14 545.946 184.115 545.912C184.089 545.878 184.142 545.698 184.238 545.504Z" fill="black"/>
<path d="M184.042 545.264H184.116C184.121 545.264 184.125 545.266 184.13 545.268C184.134 545.271 184.138 545.275 184.141 545.28C184.144 545.285 184.147 545.291 184.149 545.297C184.151 545.303 184.152 545.31 184.152 545.317V546.567H184.011V545.317C184.011 545.304 184.014 545.292 184.02 545.282C184.026 545.272 184.034 545.266 184.042 545.264Z" fill="#F6987E"/>
<path d="M185.331 547.45C185.331 547.918 185.206 548.368 184.984 548.699C184.763 549.03 184.462 549.216 184.148 549.216C183.834 549.216 183.533 549.03 183.311 548.699C183.09 548.368 182.965 547.918 182.965 547.45C182.965 546.641 183.329 546.162 183.827 546.022C183.933 545.993 184.04 545.979 184.148 545.979C184.222 545.979 184.296 545.986 184.37 545.999C184.917 546.101 185.331 546.588 185.331 547.45Z" fill="#FC4A4A"/>
<path opacity="0.1" d="M184.37 545.999C184.348 546.06 184.232 546.109 184.092 546.109C184 546.119 183.908 546.09 183.827 546.027C183.933 545.998 184.04 545.983 184.148 545.984C184.222 545.982 184.296 545.987 184.37 545.999Z" fill="black"/>
<path opacity="0.1" d="M184.345 549.174C184.032 549.174 183.731 548.988 183.509 548.657C183.287 548.326 183.162 547.877 183.162 547.408C183.162 546.614 183.514 546.138 183.997 545.989C183.94 545.996 183.883 546.007 183.827 546.022C183.329 546.162 182.965 546.641 182.965 547.45C182.965 547.918 183.09 548.368 183.311 548.699C183.533 549.03 183.834 549.216 184.148 549.216C184.237 549.216 184.326 549.201 184.413 549.17C184.39 549.173 184.37 549.174 184.345 549.174Z" fill="black"/>
<path d="M189.56 581.852C189.723 582.073 189.973 582.068 190.195 582.043L191.206 581.933C192.009 581.845 192.839 581.745 193.548 581.175C193.622 581.124 193.689 581.048 193.742 580.954C193.798 580.81 193.828 580.646 193.827 580.479C193.923 578.844 194.14 577.231 194.476 575.669C194.92 573.589 195.585 571.539 195.576 569.361C195.576 569.308 195.576 569.251 195.576 569.204C195.564 568.522 195.483 567.847 195.434 567.169C195.352 566.033 195.36 564.889 195.366 563.748C195.359 563.301 195.38 562.854 195.428 562.412C195.474 562.053 195.65 561.694 195.542 561.378C195.335 560.766 194.581 560.54 194.176 560.518C193.63 560.49 193.094 560.703 192.566 560.914C192.406 560.98 192.238 561.049 192.117 561.218C191.954 561.445 191.908 561.802 191.902 562.134C191.874 563.607 192.442 564.977 192.487 566.448C192.495 566.713 192.487 567 192.591 567.221C192.659 567.341 192.733 567.453 192.813 567.557C193.034 567.92 193.041 568.468 193.026 568.96C193.019 569.158 193.011 569.357 193.003 569.556C192.882 572.206 192.523 574.821 191.936 577.329C191.879 577.597 191.805 577.856 191.714 578.102C191.566 578.447 191.38 578.753 191.165 579.009C190.861 579.397 190.534 579.745 190.19 580.051C189.96 580.254 189.715 580.448 189.557 580.77C189.4 581.092 189.365 581.581 189.56 581.852Z" fill="#FDA8A8"/>
<path opacity="0.1" d="M189.56 581.852C189.723 582.073 189.973 582.068 190.195 582.043L191.206 581.933C192.009 581.845 192.839 581.745 193.548 581.175C193.622 581.124 193.689 581.048 193.742 580.954C193.798 580.81 193.828 580.646 193.827 580.479C193.923 578.844 194.14 577.231 194.476 575.669C194.92 573.589 195.585 571.539 195.576 569.361C195.576 569.308 195.576 569.251 195.576 569.204C195.564 568.522 195.483 567.847 195.434 567.169C195.352 566.033 195.36 564.889 195.366 563.748C195.359 563.301 195.38 562.854 195.428 562.412C195.474 562.053 195.65 561.694 195.542 561.378C195.335 560.766 194.581 560.54 194.176 560.518C193.63 560.49 193.094 560.703 192.566 560.914C192.406 560.98 192.238 561.049 192.117 561.218C191.954 561.445 191.908 561.802 191.902 562.134C191.874 563.607 192.442 564.977 192.487 566.448C192.495 566.713 192.487 567 192.591 567.221C192.659 567.341 192.733 567.453 192.813 567.557C193.034 567.92 193.041 568.468 193.026 568.96C193.019 569.158 193.011 569.357 193.003 569.556C192.882 572.206 192.523 574.821 191.936 577.329C191.879 577.597 191.805 577.856 191.714 578.102C191.566 578.447 191.38 578.753 191.165 579.009C190.861 579.397 190.534 579.745 190.19 580.051C189.96 580.254 189.715 580.448 189.557 580.77C189.4 581.092 189.365 581.581 189.56 581.852Z" fill="black"/>
<path d="M189.56 581.852C189.723 582.073 189.973 582.068 190.195 582.043L191.206 581.933C192.009 581.845 192.839 581.745 193.548 581.175C193.622 581.124 193.689 581.048 193.742 580.954C193.798 580.81 193.828 580.646 193.827 580.479C193.923 578.844 194.14 577.231 194.476 575.669C194.92 573.589 195.585 571.538 195.576 569.361C194.722 569.502 193.862 569.566 193.003 569.551C192.882 572.202 192.523 574.817 191.936 577.325C191.879 577.593 191.805 577.852 191.714 578.097C191.566 578.443 191.38 578.749 191.165 579.004C190.861 579.393 190.534 579.741 190.19 580.046C189.96 580.249 189.715 580.443 189.557 580.766C189.4 581.088 189.365 581.581 189.56 581.852Z" fill="#EEEFF3"/>
<path opacity="0.1" d="M189.56 581.852C189.723 582.073 189.973 582.068 190.195 582.043L191.206 581.933C192.009 581.845 192.839 581.745 193.548 581.175C193.622 581.124 193.689 581.048 193.742 580.954C193.798 580.81 193.828 580.646 193.827 580.479C193.923 578.844 194.14 577.231 194.476 575.669C194.92 573.589 195.585 571.538 195.576 569.361C194.722 569.502 193.862 569.566 193.003 569.551C192.882 572.202 192.523 574.817 191.936 577.325C191.879 577.593 191.805 577.852 191.714 578.097C191.566 578.443 191.38 578.749 191.165 579.004C190.861 579.393 190.534 579.741 190.19 580.046C189.96 580.249 189.715 580.443 189.557 580.766C189.4 581.088 189.365 581.581 189.56 581.852Z" fill="black"/>
<path d="M191.793 581.387C192.036 581.257 192.269 581.091 192.489 580.89L193.604 579.952C193.704 579.855 193.817 579.787 193.934 579.753L194.067 581.237C194.101 581.601 194.118 582.029 193.934 582.273C193.868 582.351 193.793 582.41 193.712 582.445C193.308 582.654 192.872 582.658 192.444 582.678C191.129 582.741 189.801 582.97 188.506 582.626C188.348 582.584 188.176 582.516 188.081 582.328C187.972 582.107 188.003 581.787 188.108 581.563C188.223 581.35 188.37 581.18 188.536 581.066C188.866 580.801 189.208 580.576 189.55 580.35C189.572 580.331 189.597 580.325 189.621 580.332C189.654 580.348 189.664 580.409 189.673 580.46C189.733 580.822 189.928 581.108 190.151 581.279C190.154 581.279 191.301 581.621 191.793 581.387Z" fill="#BBBDC8"/>
<path opacity="0.1" d="M191.793 581.387C192.036 581.257 192.269 581.091 192.489 580.89L193.604 579.952C193.704 579.855 193.817 579.787 193.934 579.753L194.067 581.237C194.101 581.601 194.118 582.029 193.934 582.273C193.868 582.351 193.793 582.41 193.712 582.445C193.308 582.654 192.872 582.658 192.444 582.678C191.129 582.741 189.801 582.97 188.506 582.626C188.348 582.584 188.176 582.516 188.081 582.328C187.972 582.107 188.003 581.787 188.108 581.563C188.223 581.35 188.37 581.18 188.536 581.066C188.866 580.801 189.208 580.576 189.55 580.35C189.572 580.331 189.597 580.325 189.621 580.332C189.654 580.348 189.664 580.409 189.673 580.46C189.733 580.822 189.928 581.108 190.151 581.279C190.154 581.279 191.301 581.621 191.793 581.387Z" fill="black"/>
<path d="M190.299 583.397C190.463 583.618 190.713 583.612 190.935 583.588L191.945 583.478C192.748 583.39 193.579 583.29 194.287 582.72C194.362 582.669 194.428 582.593 194.481 582.499C194.538 582.355 194.567 582.19 194.566 582.023C194.662 580.389 194.88 578.776 195.216 577.214C195.659 575.134 196.325 573.083 196.316 570.906C196.316 570.853 196.316 570.796 196.316 570.748C196.303 570.066 196.223 569.392 196.173 568.714C196.091 567.578 196.099 566.434 196.105 565.293C196.099 564.846 196.119 564.398 196.167 563.957C196.214 563.598 196.389 563.238 196.282 562.923C196.074 562.31 195.321 562.085 194.915 562.063C194.37 562.034 193.833 562.247 193.306 562.459C193.145 562.524 192.977 562.594 192.856 562.763C192.694 562.99 192.647 563.346 192.641 563.679C192.613 565.152 193.182 566.522 193.227 567.993C193.235 568.258 193.227 568.545 193.33 568.766C193.398 568.886 193.473 568.998 193.552 569.102C193.774 569.465 193.78 570.012 193.765 570.505C193.758 570.703 193.751 570.902 193.742 571.1C193.621 573.751 193.262 576.366 192.675 578.874C192.618 579.142 192.544 579.401 192.453 579.647C192.305 579.992 192.12 580.298 191.905 580.554C191.6 580.942 191.274 581.29 190.929 581.595C190.699 581.798 190.454 581.993 190.296 582.315C190.139 582.637 190.104 583.126 190.299 583.397Z" fill="#FDA8A8"/>
<path d="M190.299 583.397C190.463 583.618 190.713 583.612 190.935 583.588L191.945 583.478C192.748 583.39 193.579 583.29 194.287 582.72C194.362 582.669 194.428 582.593 194.481 582.499C194.538 582.355 194.567 582.19 194.566 582.023C194.662 580.389 194.88 578.776 195.216 577.214C195.659 575.134 196.325 573.083 196.316 570.906C195.461 571.047 194.602 571.111 193.742 571.096C193.621 573.747 193.262 576.362 192.675 578.87C192.618 579.138 192.544 579.396 192.453 579.642C192.305 579.987 192.12 580.294 191.905 580.549C191.6 580.937 191.274 581.286 190.929 581.591C190.699 581.794 190.454 581.988 190.296 582.31C190.139 582.633 190.104 583.126 190.299 583.397Z" fill="#EEEFF3"/>
<path d="M192.532 582.932C192.775 582.802 193.009 582.635 193.229 582.435L194.343 581.497C194.444 581.4 194.556 581.332 194.674 581.297L194.807 582.782C194.84 583.146 194.858 583.574 194.674 583.818C194.608 583.896 194.532 583.954 194.452 583.99C194.047 584.198 193.611 584.203 193.183 584.223C191.868 584.286 190.54 584.515 189.245 584.171C189.087 584.129 188.915 584.06 188.82 583.873C188.711 583.652 188.742 583.332 188.847 583.108C188.962 582.895 189.109 582.725 189.275 582.61C189.605 582.346 189.948 582.121 190.29 581.894C190.311 581.876 190.336 581.869 190.36 581.877C190.393 581.893 190.404 581.954 190.413 582.005C190.472 582.367 190.668 582.652 190.89 582.823C190.893 582.823 192.04 583.166 192.532 582.932Z" fill="#BBBDC8"/>
<path d="M188.866 538.637C189.226 537.975 189.235 537.05 189.227 536.201C189.227 535.87 189.22 535.527 189.212 535.191V535.183C189.202 534.565 189.158 533.948 189.081 533.34C189.042 533.049 188.99 532.761 188.926 532.48C188.974 532.463 189.023 532.448 189.074 532.434C189.849 532.206 190.646 532.206 191.421 532.434C191.555 532.474 191.894 532.465 192.086 532.564C192.141 532.583 192.189 532.633 192.22 532.704C192.258 532.822 192.18 533.164 192.124 533.467C192.093 533.604 192.076 533.747 192.072 533.891C192.08 534.027 192.094 534.161 192.114 534.294C192.149 534.538 192.194 534.779 192.216 535.026C192.254 535.448 192.22 535.877 192.239 536.302C192.257 536.727 192.339 537.174 192.556 537.451C191.297 537.612 190.057 538.01 188.866 538.637Z" fill="#FDA8A8"/>
<path opacity="0.1" d="M192.409 534.245C192.311 534.257 192.213 534.272 192.113 534.288C191.128 534.445 190.156 534.748 189.212 535.193V535.185L189.081 533.343C189.081 533.232 189.081 533.122 189.081 533.006C189.081 532.817 189.077 532.626 189.074 532.437C189.849 532.208 190.647 532.208 191.422 532.437C191.556 532.476 191.894 532.468 192.087 532.566C192.087 532.746 192.087 532.926 192.092 533.105C192.097 533.228 192.108 533.35 192.125 533.47C192.16 533.767 192.26 534.04 192.409 534.245Z" fill="black"/>
<path d="M190.543 534.752C192.054 534.752 193.279 532.924 193.279 530.669C193.279 528.414 192.054 526.586 190.543 526.586C189.033 526.586 187.808 528.414 187.808 530.669C187.808 532.924 189.033 534.752 190.543 534.752Z" fill="#FDA8A8"/>
<path d="M188.14 546.063C187.655 543.498 188.098 540.742 189.258 538.716C189.516 538.265 189.776 537.802 190.115 537.531C190.518 537.211 190.994 537.2 191.451 537.194C191.854 537.194 192.269 537.194 192.64 537.433C193.14 537.752 193.485 538.445 193.777 539.132C194.087 539.865 194.368 540.658 194.416 541.524C194.441 542.037 194.38 542.558 194.431 543.068C194.496 543.716 194.738 544.297 194.837 544.934C194.891 545.279 194.902 545.635 194.937 545.986C194.989 546.466 195.065 546.94 195.165 547.403C195.899 551.043 196.905 554.549 198.163 557.855C198.533 558.829 198.929 559.792 199.177 560.848C199.289 561.326 199.371 561.841 199.279 562.334C199.126 563.15 198.435 563.63 197.918 563.278C197.937 563.369 197.933 563.467 197.907 563.553C197.881 563.64 197.834 563.709 197.776 563.748C197.653 563.831 197.519 563.869 197.384 563.858L192.818 564.039C192.698 564.044 192.579 564.068 192.462 564.111C191.925 564.316 192.127 564.663 192.069 564.952C191.999 565.305 191.66 565.276 191.423 565.173C191.46 565.688 191.468 566.318 191.022 566.468C190.906 566.503 190.787 566.497 190.673 566.45C189.864 566.139 189.025 566.039 188.193 566.153C187.888 566.194 187.54 566.245 187.315 565.932C187.145 565.699 187.1 565.328 187.071 564.986C186.617 559.579 187.552 554.165 188.254 548.823C188.349 548.102 188.315 546.935 188.173 546.231L188.14 546.063Z" fill="#F75842"/>
<path d="M194.203 542.337C194.311 542.798 194.444 543.252 194.481 543.737C194.509 544.126 194.475 544.518 194.49 544.908C194.519 545.34 194.578 545.767 194.668 546.18C194.811 546.984 194.986 547.774 195.194 548.545C195.293 548.892 195.408 549.275 195.328 549.634C195.248 549.993 195 550.214 194.929 550.571C194.855 550.947 195.003 551.343 195.192 551.618C195.38 551.893 195.616 552.088 195.791 552.38C195.981 552.699 196.087 553.106 196.22 553.484C196.41 553.983 196.628 554.457 196.872 554.902L197.766 556.633C197.821 556.758 197.894 556.863 197.98 556.942C198.276 557.172 198.586 556.709 198.887 556.501C199.286 556.217 199.753 556.384 200.194 556.431C200.636 556.479 201.167 556.308 201.325 555.692C201.377 555.442 201.388 555.177 201.357 554.919C201.288 554.039 201.117 553.183 200.852 552.389C200.691 551.906 200.495 551.444 200.393 550.926C200.311 550.506 200.294 550.063 200.228 549.636C200.163 549.209 200.047 548.801 199.953 548.384C199.292 545.42 199.789 542.177 199.576 539.07C199.496 537.923 199.262 536.666 198.601 536.069C198.209 535.715 197.737 535.66 197.27 535.628L197.06 535.614L196.72 535.588C196.229 535.552 195.737 535.524 195.258 535.68C194.586 535.9 193.776 536.681 193.749 537.802C193.72 539.341 193.874 540.877 194.203 542.337Z" fill="#0869FF"/>
<path opacity="0.1" d="M196.724 535.584C196.815 536.335 196.86 537.096 196.859 537.859C196.872 540.037 197.03 542.207 197.188 544.369L197.292 545.804C197.312 546.069 197.335 546.347 197.44 546.56C197.546 546.773 197.768 546.884 197.908 546.72C197.993 546.213 197.976 545.681 197.959 545.159C197.922 544.049 197.886 542.939 197.849 541.828C197.814 540.747 197.775 539.664 197.687 538.59C197.618 537.757 197.517 536.931 197.383 536.117C197.357 535.948 197.322 535.783 197.277 535.623L197.066 535.609L196.724 535.584Z" fill="black"/>
<path d="M191.893 536.517C191.44 536.42 190.965 536.37 190.535 536.606C190.123 536.832 189.795 537.296 189.499 537.785C189.298 538.1 189.131 538.461 189.006 538.854C188.753 539.719 188.852 540.717 189.006 541.633C189.425 544.155 190.257 546.588 191.593 548.254C192 548.747 192.433 549.19 192.888 549.578C193.48 550.095 194.09 550.571 194.745 550.87C194.927 550.954 195.122 551.024 195.309 550.965C195.496 550.905 195.672 550.679 195.678 550.393C194.606 549.494 193.645 548.332 192.691 547.175C192.429 546.874 192.184 546.542 191.958 546.182C191.619 545.614 191.38 544.928 191.052 544.346C190.756 543.824 190.387 543.384 190.165 542.787C190.026 542.379 189.933 541.94 189.889 541.487C189.78 540.564 189.759 539.583 190.004 538.719C190.25 537.855 190.813 537.145 191.441 537.161C191.763 537.168 192.07 537.359 192.367 537.546L194.238 538.724C194.215 538.709 194.345 538.224 194.339 538.157C194.322 537.946 194.297 537.943 194.192 537.783C194.013 537.516 193.735 537.328 193.508 537.173C192.993 536.84 192.449 536.619 191.893 536.517Z" fill="#0869FF"/>
<path d="M188.169 529.897C188.703 529.72 189.197 529.339 189.603 528.793L189.212 531.856C189.601 531.589 189.979 531.286 190.343 530.947C190.396 532.348 190.319 533.782 189.973 535.086C189.627 536.39 188.989 537.558 188.133 538.137C188.893 538.327 189.576 537.513 190.252 536.962C190.724 536.579 191.53 536.973 192.046 536.741C192.484 536.549 192.933 536.382 193.328 536.038C194.061 535.399 194.228 533.534 194.376 532.287C194.525 531.04 194.39 529.749 194.143 528.535C194.06 528.105 193.949 527.689 193.811 527.292C193.62 526.772 193.36 526.316 193.045 525.954C192.73 525.591 192.369 525.33 191.983 525.187C191.598 525.044 191.197 525.021 190.805 525.121C190.413 525.221 190.04 525.441 189.708 525.767C189.026 526.437 188.394 527.423 187.874 528.357C187.8 528.486 187.494 528.945 187.596 529.138C187.719 529.372 188.444 528.706 188.566 528.615C188.531 528.815 188.311 529.845 188.169 529.897Z" fill="#FFD566"/>
<g opacity="0.1">
<path opacity="0.1" d="M191.246 565.585C191.13 565.62 191.011 565.614 190.897 565.568C190.088 565.257 189.249 565.156 188.417 565.27C188.112 565.312 187.764 565.362 187.539 565.049C187.369 564.816 187.324 564.446 187.295 564.103C186.841 558.697 187.776 553.282 188.478 547.94C188.573 547.22 188.539 546.052 188.397 545.348L188.364 545.177C188.09 543.718 188.106 542.172 188.41 540.727C187.906 542.404 187.81 544.292 188.14 546.063L188.174 546.234C188.316 546.938 188.35 548.11 188.255 548.826C187.555 554.168 186.62 559.586 187.072 564.99C187.101 565.332 187.146 565.702 187.315 565.935C187.537 566.245 187.889 566.194 188.194 566.156C189.026 566.042 189.865 566.143 190.674 566.454C190.787 566.5 190.907 566.506 191.023 566.471C191.386 566.349 191.448 565.906 191.439 565.468C191.38 565.524 191.314 565.564 191.246 565.585Z" fill="black"/>
<path opacity="0.1" d="M198.141 562.395C198.16 562.486 198.156 562.584 198.13 562.671C198.104 562.757 198.057 562.827 197.999 562.865C197.876 562.948 197.742 562.986 197.607 562.976L193.041 563.157C192.921 563.161 192.802 563.185 192.685 563.228C192.149 563.434 192.35 563.78 192.293 564.069C192.223 564.422 191.883 564.394 191.647 564.29C191.669 564.604 191.68 564.961 191.584 565.226C191.792 565.272 192.016 565.231 192.071 564.952C192.126 564.673 191.927 564.316 192.464 564.111C192.58 564.068 192.699 564.044 192.819 564.039L197.383 563.858C197.517 563.869 197.652 563.831 197.774 563.748C197.833 563.709 197.879 563.64 197.906 563.553C197.932 563.467 197.936 563.369 197.916 563.278C198.434 563.63 199.125 563.15 199.278 562.334C199.301 562.21 199.314 562.082 199.316 561.954C199.04 562.448 198.539 562.669 198.141 562.395Z" fill="black"/>
</g>
<path d="M192.016 539.338C192.408 540.584 192.756 541.861 193.056 543.163C193.298 544.213 193.512 545.315 193.431 546.418C193.351 547.522 192.914 548.636 192.204 548.984C191.902 549.132 191.579 549.133 191.262 549.144C190.502 549.171 189.744 549.262 188.992 549.418C188.641 549.504 188.288 549.563 187.933 549.593C187.432 549.617 186.931 549.5 186.431 549.561C185.622 549.659 184.854 550.223 184.042 550.223C183.943 550.232 183.844 550.205 183.754 550.144C183.606 550.025 183.54 549.766 183.49 549.528C183.377 548.99 183.288 548.372 183.479 547.885C183.715 547.286 184.251 547.166 184.716 547.113C185.763 547.002 186.812 546.925 187.861 546.881C188.756 546.843 189.726 546.793 190.421 545.947C190.468 545.897 190.506 545.832 190.532 545.755C190.559 545.626 190.555 545.488 190.523 545.361C190.248 543.757 190.13 542.101 190.173 540.446C190.168 540.297 190.194 540.15 190.247 540.024C190.31 539.923 190.391 539.852 190.481 539.821C191.101 539.524 191.765 539.497 192.395 539.742" fill="#FDA8A8"/>
<path d="M190.155 540.444C190.047 540.5 189.954 540.602 189.887 540.739C189.916 540.279 189.877 539.814 189.882 539.351C189.888 538.887 189.946 538.404 190.142 538.044C190.391 537.585 190.815 537.421 191.211 537.406C191.786 537.382 192.382 537.632 192.803 538.217C193.074 538.596 193.25 539.102 193.302 539.651C193.315 539.802 193.36 540.369 193.254 540.466C193.162 540.553 192.81 540.256 192.697 540.208C191.857 539.84 190.957 539.923 190.155 540.444Z" fill="#F75842"/>
<path opacity="0.1" d="M178.972 514.393C179.258 514.393 179.49 514.047 179.49 513.621C179.49 513.194 179.258 512.848 178.972 512.848C178.686 512.848 178.455 513.194 178.455 513.621C178.455 514.047 178.686 514.393 178.972 514.393Z" fill="#0869FF"/>
<path opacity="0.1" d="M182.447 529.29C182.733 529.29 182.965 528.944 182.965 528.517C182.965 528.091 182.733 527.745 182.447 527.745C182.161 527.745 181.93 528.091 181.93 528.517C181.93 528.944 182.161 529.29 182.447 529.29Z" fill="#0869FF"/>
<path opacity="0.1" d="M172.614 515.166C172.9 515.166 173.131 514.82 173.131 514.393C173.131 513.967 172.9 513.621 172.614 513.621C172.328 513.621 172.096 513.967 172.096 514.393C172.096 514.82 172.328 515.166 172.614 515.166Z" fill="#0869FF"/>
<path opacity="0.1" d="M156.717 551.579C157.452 551.579 158.048 550.69 158.048 549.593C158.048 548.496 157.452 547.607 156.717 547.607C155.982 547.607 155.386 548.496 155.386 549.593C155.386 550.69 155.982 551.579 156.717 551.579Z" fill="#0869FF"/>
<path opacity="0.1" d="M210.322 518.807C210.607 518.807 210.839 518.461 210.839 518.034C210.839 517.608 210.607 517.262 210.322 517.262C210.036 517.262 209.804 517.608 209.804 518.034C209.804 518.461 210.036 518.807 210.322 518.807Z" fill="#0869FF"/>
<path opacity="0.1" d="M210.913 531.055C211.852 531.055 212.614 529.919 212.614 528.517C212.614 527.116 211.852 525.979 210.913 525.979C209.974 525.979 209.213 527.116 209.213 528.517C209.213 529.919 209.974 531.055 210.913 531.055Z" fill="#0869FF"/>
<path opacity="0.1" d="M213.649 522.117C213.935 522.117 214.166 521.771 214.166 521.345C214.166 520.918 213.935 520.572 213.649 520.572C213.363 520.572 213.131 520.918 213.131 521.345C213.131 521.771 213.363 522.117 213.649 522.117Z" fill="#0869FF"/>
<path opacity="0.1" d="M209.065 536.241C209.351 536.241 209.582 535.896 209.582 535.469C209.582 535.042 209.351 534.697 209.065 534.697C208.779 534.697 208.547 535.042 208.547 535.469C208.547 535.896 208.779 536.241 209.065 536.241Z" fill="#0869FF"/>
<path opacity="0.1" d="M177.937 520.572C178.223 520.572 178.455 520.227 178.455 519.8C178.455 519.373 178.223 519.028 177.937 519.028C177.651 519.028 177.42 519.373 177.42 519.8C177.42 520.227 177.651 520.572 177.937 520.572Z" fill="#0869FF"/>
<path opacity="0.1" d="M158.566 559.634C158.851 559.634 159.083 559.289 159.083 558.862C159.083 558.435 158.851 558.09 158.566 558.09C158.28 558.09 158.048 558.435 158.048 558.862C158.048 559.289 158.28 559.634 158.566 559.634Z" fill="#0869FF"/>
<path opacity="0.1" d="M157.752 541.979C158.038 541.979 158.27 541.633 158.27 541.207C158.27 540.78 158.038 540.434 157.752 540.434C157.466 540.434 157.235 540.78 157.235 541.207C157.235 541.633 157.466 541.979 157.752 541.979Z" fill="#0869FF"/>
<path opacity="0.1" d="M186.144 513.621C186.43 513.621 186.662 513.275 186.662 512.848C186.662 512.422 186.43 512.076 186.144 512.076C185.858 512.076 185.627 512.422 185.627 512.848C185.627 513.275 185.858 513.621 186.144 513.621Z" fill="#0869FF"/>
<path opacity="0.1" d="M187.845 520.572C188.131 520.572 188.362 520.227 188.362 519.8C188.362 519.373 188.131 519.028 187.845 519.028C187.559 519.028 187.327 519.373 187.327 519.8C187.327 520.227 187.559 520.572 187.845 520.572Z" fill="#0869FF"/>
</g>
<defs>
<filter id="filter0_d" x="314" y="17" width="48" height="48" filterUnits="userSpaceOnUse" color-interpolation-filters="sRGB">
<feFlood flood-opacity="0" result="BackgroundImageFix"/>
<feColorMatrix in="SourceAlpha" type="matrix" values="0 0 0 0 0 0 0 0 0 0 0 0 0 0 0 0 0 0 127 0"/>
<feOffset dy="4"/>
<feGaussianBlur stdDeviation="2"/>
<feColorMatrix type="matrix" values="0 0 0 0 0 0 0 0 0 0 0 0 0 0 0 0 0 0 0.25 0"/>
<feBlend mode="normal" in2="BackgroundImageFix" result="effect1_dropShadow"/>
<feBlend mode="normal" in="SourceGraphic" in2="effect1_dropShadow" result="shape"/>
</filter>
<filter id="filter1_d" x="13.7753" y="26.7" width="98.4463" height="29.45" filterUnits="userSpaceOnUse" color-interpolation-filters="sRGB">
<feFlood flood-opacity="0" result="BackgroundImageFix"/>
<feColorMatrix in="SourceAlpha" type="matrix" values="0 0 0 0 0 0 0 0 0 0 0 0 0 0 0 0 0 0 127 0"/>
<feOffset dy="4"/>
<feGaussianBlur stdDeviation="2"/>
<feColorMatrix type="matrix" values="0 0 0 0 0 0 0 0 0 0 0 0 0 0 0 0 0 0 0.25 0"/>
<feBlend mode="normal" in2="BackgroundImageFix" result="effect1_dropShadow"/>
<feBlend mode="normal" in="SourceGraphic" in2="effect1_dropShadow" result="shape"/>
</filter>
<linearGradient id="paint0_linear" x1="172.433" y1="584.752" x2="172.433" y2="525.097" gradientUnits="userSpaceOnUse">
<stop stop-color="#808080" stop-opacity="0.25"/>
<stop offset="0.54" stop-color="#808080" stop-opacity="0.12"/>
<stop offset="1" stop-color="#808080" stop-opacity="0.1"/>
</linearGradient>
<linearGradient id="paint1_linear" x1="13451" y1="47520.9" x2="13451" y2="15335.1" gradientUnits="userSpaceOnUse">
<stop stop-color="#808080" stop-opacity="0.25"/>
<stop offset="0.54" stop-color="#808080" stop-opacity="0.12"/>
<stop offset="1" stop-color="#808080" stop-opacity="0.1"/>
</linearGradient>
<clipPath id="clip0">
<rect width="375" height="599" fill="white"/>
</clipPath>
<clipPath id="clip1">
<rect width="219" height="263" fill="white" transform="translate(157 209)"/>
</clipPath>
<clipPath id="clip2">
<rect width="40" height="40" fill="white" transform="translate(318 17)"/>
</clipPath>
</defs>
</svg>
